<svg width="76" height="48" viewBox="0 0 76 48" fill="none" xmlns="http://www.w3.org/2000/svg">
<path d="M42 42.6433L40.6197 42.9834L41.2079 44.2472L40.0748 43.4072L39.4276 44.6433L39.3945 43.256L38 43.5339L39.0921 42.6433L38 41.7535L39.3945 42.0306L39.4276 40.6433L40.0748 41.8794L41.2079 41.0395L40.6197 42.3032L42 42.6433Z" fill="#FDD73F"/>
<path d="M42 42.6433L40.6197 42.9834L41.2079 44.2472L40.0748 43.4072L39.4276 44.6433L39.3945 43.256L38 43.5339L39.0921 42.6433L38 41.7535L39.3945 42.0306L39.4276 40.6433L40.0748 41.8794L41.2079 41.0395L40.6197 42.3032L42 42.6433Z" stroke="black" stroke-width="0.0728345" stroke-linecap="round" stroke-linejoin="round"/>
<path d="M34.5 4.85722L33.4648 5.11226L33.9059 6.05987L33.0561 5.43005L32.5707 6.35693L32.5459 5.31663L31.5 5.52447L32.3191 4.85722L31.5 4.1894L32.5459 4.39781L32.5707 3.35693L33.0561 4.28439L33.9059 3.654L33.4648 4.60218L34.5 4.85722Z" fill="#FDD73F"/>
<path d="M34.5 4.85722L33.4648 5.11226L33.9059 6.05987L33.0561 5.43005L32.5707 6.35693L32.5459 5.31663L31.5 5.52447L32.3191 4.85722L31.5 4.1894L32.5459 4.39781L32.5707 3.35693L33.0561 4.28439L33.9059 3.654L33.4648 4.60218L34.5 4.85722Z" stroke="black" stroke-width="0.0728345" stroke-linecap="round" stroke-linejoin="round"/>
<path d="M71.0249 13.9163L69.6446 14.2564L70.2328 15.5201L69.0997 14.6802L68.4525 15.9163L68.4194 14.5289L67.0249 14.8069L68.117 13.9163L67.0249 13.0264L68.4194 13.3036L68.4525 11.9163L69.0997 13.1524L70.2328 12.3124L69.6446 13.5761L71.0249 13.9163Z" fill="#FDD73F"/>
<path d="M71.0249 13.9163L69.6446 14.2564L70.2328 15.5201L69.0997 14.6802L68.4525 15.9163L68.4194 14.5289L67.0249 14.8069L68.117 13.9163L67.0249 13.0264L68.4194 13.3036L68.4525 11.9163L69.0997 13.1524L70.2328 12.3124L69.6446 13.5761L71.0249 13.9163Z" stroke="black" stroke-width="0.0728345" stroke-linecap="round" stroke-linejoin="round"/>
<path d="M46.4823 8.56122L44.2465 7.70947L11.0146 17.2262L13.0798 18.1575L46.4823 8.56122Z" fill="#701AFB" stroke="black" stroke-width="0.101965" stroke-linecap="round" stroke-linejoin="round"/>
<path d="M19.6363 40.6935L13.1602 18.0783L46.392 8.56152L58.9412 17.5528L58.6985 18.098L52.8688 31.1767L19.6363 40.6935Z" fill="url(#paint0_linear_3495_84429)" stroke="black" stroke-width="0.0679769" stroke-miterlimit="10"/>
<path d="M38.5365 13.9163L26.8526 17.1744L25.0498 23.5364L37.5182 33.0118L43.1128 18.5L38.5379 13.9163H38.5365ZM36.4884 20.7684L36.5332 29.9583L31.7265 22.096L36.4877 20.7684H36.4884ZM31.6905 21.1443L32.8692 17.1119L35.5584 20.0655L31.6905 21.1443ZM33.3954 16.3118L37.6868 15.1154L36.2226 19.417L33.3954 16.3118ZM30.7803 20.9506L27.6228 17.9208L32.025 16.6931L30.7803 20.9506ZM30.1032 21.5868L26.2625 22.6575L27.3223 18.918L30.1039 21.5862L30.1032 21.5868ZM35.8032 30.5435L26.5773 23.5324L30.7973 22.3557L35.8032 30.5435ZM37.4156 20.5101L41.8151 19.2831L37.4645 30.568L37.4149 20.5101H37.4156ZM37.1301 19.6277L38.6038 15.2976L41.6642 18.3633L37.1301 19.6277Z" fill="#DB9C00" stroke="black" stroke-width="0.101965" stroke-linecap="round" stroke-linejoin="round"/>
<path d="M53.1412 20.5408C54.0509 20.5408 54.7883 19.8033 54.7883 18.8937C54.7883 17.984 54.0509 17.2466 53.1412 17.2466C52.2316 17.2466 51.4941 17.984 51.4941 18.8937C51.4941 19.8033 52.2316 20.5408 53.1412 20.5408Z" fill="black"/>
<mask id="mask0_3495_84429" style="mask-type:luminance" maskUnits="userSpaceOnUse" x="51" y="17" width="4" height="4">
<path d="M53.1417 20.5408C54.0514 20.5408 54.7888 19.8033 54.7888 18.8937C54.7888 17.984 54.0514 17.2466 53.1417 17.2466C52.2321 17.2466 51.4946 17.984 51.4946 18.8937C51.4946 19.8033 52.2321 20.5408 53.1417 20.5408Z" fill="white"/>
</mask>
<g mask="url(#mask0_3495_84429)">
<path d="M53.0582 21.7649C53.9679 21.7649 54.7053 21.0275 54.7053 20.1178C54.7053 19.2081 53.9679 18.4707 53.0582 18.4707C52.1486 18.4707 51.4111 19.2081 51.4111 20.1178C51.4111 21.0275 52.1486 21.7649 53.0582 21.7649Z" fill="#701AFB" stroke="black" stroke-width="0.104684" stroke-linecap="round" stroke-linejoin="round"/>
</g>
<path d="M53.1412 20.5408C54.0509 20.5408 54.7883 19.8033 54.7883 18.8937C54.7883 17.984 54.0509 17.2466 53.1412 17.2466C52.2316 17.2466 51.4941 17.984 51.4941 18.8937C51.4941 19.8033 52.2316 20.5408 53.1412 20.5408Z" stroke="black" stroke-width="0.104684" stroke-linecap="round" stroke-linejoin="round"/>
<path d="M13.0798 18.1574L11.0146 17.2261L17.4909 39.8415L19.5567 40.7728L13.0798 18.1574Z" fill="black" stroke="black" stroke-width="0.104684" stroke-linecap="round" stroke-linejoin="round"/>
<path d="M45.1311 27.0442L45.6128 29.2959L47.8646 29.7783L45.6128 30.2601L45.1311 32.5118L44.6487 30.2601L42.397 29.7783L44.6487 29.2959L45.1311 27.0442Z" fill="white" stroke="black" stroke-width="0.0880001" stroke-linecap="round" stroke-linejoin="round"/>
<path d="M25.5824 6.95343L22.4243 7.93256L24.0447 10.5836L21.2333 8.95051L19.963 11.7542L19.6149 8.73871L16.4106 9.58413L18.788 7.45689L16.0625 5.70736L19.3755 6.07006L19.1813 3.04312L20.9346 5.62308L23.4178 3.59733L22.2918 6.45174L25.5824 6.95343Z" fill="#FCF7DE"/>
<path d="M19.9669 11.7974C19.9635 11.7974 19.9596 11.7974 19.9562 11.7974C19.9349 11.7948 19.9179 11.7789 19.9154 11.759L19.5736 8.79475L16.4238 9.62605C16.4029 9.63179 16.3805 9.6234 16.3694 9.6062C16.3582 9.58899 16.3616 9.56737 16.3771 9.55369L18.7142 7.46263L16.0348 5.7431C16.0169 5.73163 16.0101 5.71089 16.0178 5.69235C16.0256 5.67382 16.046 5.66235 16.0678 5.665L19.324 6.02152L19.1332 3.04577C19.1317 3.02591 19.1458 3.00782 19.1662 3.00209C19.1871 2.99591 19.2094 3.00385 19.2211 3.02062L20.9448 5.55645L23.3858 3.56555C23.4018 3.55232 23.4261 3.55055 23.444 3.56203C23.462 3.57306 23.4698 3.5938 23.462 3.61233L22.3549 6.41776L25.5897 6.91063C25.6111 6.91416 25.6276 6.93005 25.6291 6.9499C25.6305 6.96976 25.6174 6.98785 25.597 6.99447L22.4928 7.95726L24.0855 10.5628C24.0961 10.58 24.0923 10.6016 24.0767 10.6153C24.0607 10.629 24.0369 10.6308 24.0184 10.6202L21.2546 9.01493L20.0058 11.7709C19.999 11.7864 19.9829 11.7961 19.9654 11.7974H19.9669ZM19.611 8.69547C19.6217 8.69458 19.6324 8.69723 19.6416 8.70253C19.6532 8.70959 19.661 8.72106 19.6625 8.73385L19.9907 11.5794L21.1896 8.93374C21.1949 8.92183 21.2056 8.913 21.2192 8.90903C21.2328 8.90506 21.2473 8.90682 21.259 8.91388L23.9121 10.4547L22.3831 7.95373C22.3763 7.9427 22.3753 7.92903 22.3802 7.91711C22.385 7.9052 22.3957 7.89593 22.4093 7.89152L25.3892 6.96755L22.284 6.49454C22.2699 6.49233 22.2578 6.48483 22.251 6.4738C22.2442 6.46277 22.2427 6.44953 22.2471 6.43718L23.31 3.74382L20.9667 5.65485C20.956 5.66367 20.9419 5.6672 20.9283 5.66544C20.9142 5.66367 20.9021 5.65617 20.8948 5.64514L19.2405 3.21079L19.4241 6.06697C19.425 6.07977 19.4192 6.09212 19.409 6.10095C19.3988 6.10977 19.3847 6.11419 19.3706 6.11242L16.2446 5.77001L18.8166 7.42071C18.8283 7.42821 18.8355 7.43968 18.8365 7.45248C18.8375 7.46528 18.8326 7.47763 18.8224 7.4869L16.5786 9.49456L19.6022 8.69679C19.6052 8.69591 19.6086 8.69547 19.6115 8.69502L19.611 8.69547Z" fill="black"/>
<path d="M25.5824 6.95343L22.4243 7.93256L24.0447 10.5836L21.2333 8.95051L19.963 11.7542L19.6149 8.73871L16.4106 9.58413L18.788 7.45689L16.0625 5.70736L19.3755 6.07006L19.1813 3.04312L20.9346 5.62308L23.4178 3.59733L22.2918 6.45174L25.5824 6.95343Z" stroke="black" stroke-width="0.0728345" stroke-linecap="round"/>
<path d="M19.9669 11.7974C19.9635 11.7974 19.9596 11.7974 19.9562 11.7974C19.9349 11.7948 19.9179 11.7789 19.9154 11.759L19.5736 8.79475L16.4238 9.62605C16.4029 9.63179 16.3805 9.6234 16.3694 9.6062C16.3582 9.58899 16.3616 9.56737 16.3771 9.55369L18.7142 7.46263L16.0348 5.7431C16.0169 5.73163 16.0101 5.71089 16.0178 5.69235C16.0256 5.67382 16.046 5.66235 16.0678 5.665L19.324 6.02152L19.1332 3.04577C19.1317 3.02591 19.1458 3.00782 19.1662 3.00209C19.1871 2.99591 19.2094 3.00385 19.2211 3.02062L20.9448 5.55645L23.3858 3.56555C23.4018 3.55232 23.4261 3.55055 23.444 3.56203C23.462 3.57306 23.4698 3.5938 23.462 3.61233L22.3549 6.41776L25.5897 6.91063C25.6111 6.91416 25.6276 6.93005 25.6291 6.9499C25.6305 6.96976 25.6174 6.98785 25.597 6.99447L22.4928 7.95726L24.0855 10.5628C24.0961 10.58 24.0923 10.6016 24.0767 10.6153C24.0607 10.629 24.0369 10.6308 24.0184 10.6202L21.2546 9.01493L20.0058 11.7709C19.999 11.7864 19.9829 11.7961 19.9654 11.7974H19.9669ZM19.611 8.69547C19.6217 8.69458 19.6324 8.69723 19.6416 8.70253C19.6532 8.70959 19.661 8.72106 19.6625 8.73385L19.9907 11.5794L21.1896 8.93374C21.1949 8.92183 21.2056 8.913 21.2192 8.90903C21.2328 8.90506 21.2473 8.90682 21.259 8.91388L23.9121 10.4547L22.3831 7.95373C22.3763 7.9427 22.3753 7.92903 22.3802 7.91711C22.385 7.9052 22.3957 7.89593 22.4093 7.89152L25.3892 6.96755L22.284 6.49454C22.2699 6.49233 22.2578 6.48483 22.251 6.4738C22.2442 6.46277 22.2427 6.44953 22.2471 6.43718L23.31 3.74382L20.9667 5.65485C20.956 5.66367 20.9419 5.6672 20.9283 5.66544C20.9142 5.66367 20.9021 5.65617 20.8948 5.64514L19.2405 3.21079L19.4241 6.06697C19.425 6.07977 19.4192 6.09212 19.409 6.10095C19.3988 6.10977 19.3847 6.11419 19.3706 6.11242L16.2446 5.77001L18.8166 7.42071C18.8283 7.42821 18.8355 7.43968 18.8365 7.45248C18.8375 7.46528 18.8326 7.47763 18.8224 7.4869L16.5786 9.49456L19.6022 8.69679C19.6052 8.69591 19.6086 8.69547 19.6115 8.69502L19.611 8.69547Z" stroke="black" stroke-width="0.0728345" stroke-linecap="round"/>
<path d="M70.5172 32.1414L71.7763 35.1572L75.0344 35.4233L72.5546 37.553L73.3087 40.7334L70.5172 39.0334L67.7252 40.7334L68.4793 37.553L66 35.4233L69.2576 35.1572L70.5172 32.1414Z" fill="#18AB64"/>
<path d="M70.5172 32.1414L71.7763 35.1572L75.0344 35.4233L72.5546 37.553L73.3087 40.7334L70.5172 39.0334L67.7252 40.7334L68.4793 37.553L66 35.4233L69.2576 35.1572L70.5172 32.1414Z" stroke="black" stroke-width="0.0728345" stroke-linecap="round"/>
<path d="M70.5172 32.1414L71.7763 35.1572L75.0344 35.4233L72.5546 37.553L73.3087 40.7334L70.5172 39.0334L67.7252 40.7334L68.4793 37.553L66 35.4233L69.2576 35.1572L70.5172 32.1414Z" stroke="black" stroke-width="0.0728345" stroke-linecap="round"/>
<path d="M3.25 30.6414L3.87734 32.2207L5.5 32.3603L4.26505 33.4755L4.64014 35.1414L3.25 34.251L1.85931 35.1414L2.23495 33.4755L1 32.3603L2.62266 32.2207L3.25 30.6414Z" fill="#FCF7DE"/>
<path d="M3.25 30.6414L3.87734 32.2207L5.5 32.3603L4.26505 33.4755L4.64014 35.1414L3.25 34.251L1.85931 35.1414L2.23495 33.4755L1 32.3603L2.62266 32.2207L3.25 30.6414Z" stroke="black" stroke-width="0.0473484" stroke-linecap="round" stroke-linejoin="round"/>
<defs>
<linearGradient id="paint0_linear_3495_84429" x1="51.7083" y1="26.5009" x2="18.7426" y2="19.137" gradientUnits="userSpaceOnUse">
<stop stop-color="#FDD73F"/>
<stop offset="0.476586" stop-color="#FFF1BA"/>
<stop offset="0.83" stop-color="#FDD740"/>
</linearGradient>
</defs>
</svg>
