<svg width="501" height="244" viewBox="0 0 501 244" fill="none" xmlns="http://www.w3.org/2000/svg">
<g clip-path="url(#clip0_3987_23418)">
<rect x="240.342" y="0.00012207" width="170.769" height="139.882" rx="5.79772" fill="url(#paint0_linear_3987_23418)" fill-opacity="0.6"/>
<path d="M258.457 20.5714C258.202 20.5714 257.975 20.6216 257.777 20.7221C257.582 20.8196 257.417 20.9617 257.282 21.1482C257.15 21.3347 257.05 21.56 256.981 21.824C256.912 22.088 256.878 22.385 256.878 22.715C256.878 23.1598 256.932 23.54 257.041 23.8557C257.153 24.1685 257.325 24.4081 257.558 24.5745C257.79 24.7381 258.09 24.8199 258.457 24.8199C258.713 24.8199 258.968 24.7912 259.223 24.7338C259.482 24.6764 259.762 24.5946 260.063 24.4885V25.6076C259.784 25.7224 259.51 25.8042 259.241 25.853C258.971 25.9046 258.668 25.9304 258.332 25.9304C257.684 25.9304 257.15 25.797 256.731 25.5301C256.315 25.2604 256.007 24.8845 255.806 24.4024C255.605 23.9174 255.504 23.3521 255.504 22.7064C255.504 22.2301 255.569 21.7939 255.698 21.3979C255.827 21.0019 256.017 20.6589 256.266 20.3691C256.516 20.0793 256.824 19.8554 257.192 19.6976C257.559 19.5398 257.981 19.4609 258.457 19.4609C258.77 19.4609 259.083 19.501 259.396 19.5814C259.711 19.6589 260.013 19.7665 260.3 19.9042L259.869 20.9889C259.634 20.877 259.397 20.7795 259.159 20.6962C258.921 20.613 258.687 20.5714 258.457 20.5714ZM261.406 25.8444V19.5513H262.74V24.7424H265.293V25.8444H261.406ZM270.243 25.8444L269.787 24.3464H267.492L267.036 25.8444H265.598L267.819 19.5254H269.451L271.681 25.8444H270.243ZM269.468 23.2273L269.012 21.7637C268.983 21.6662 268.944 21.5413 268.896 21.3893C268.85 21.2343 268.802 21.0779 268.754 20.9201C268.708 20.7594 268.67 20.6202 268.642 20.5025C268.613 20.6202 268.573 20.7665 268.521 20.9416C268.472 21.1138 268.425 21.2773 268.379 21.4323C268.333 21.5873 268.3 21.6977 268.28 21.7637L267.828 23.2273H269.468ZM274.311 19.5513C274.882 19.5513 275.352 19.6201 275.722 19.7579C276.095 19.8956 276.372 20.1037 276.553 20.382C276.734 20.6604 276.824 21.0119 276.824 21.4366C276.824 21.7236 276.77 21.9747 276.661 22.1899C276.552 22.4051 276.408 22.5873 276.23 22.7365C276.052 22.8858 275.86 23.0077 275.654 23.1024L277.504 25.8444H276.024L274.521 23.4296H273.811V25.8444H272.477V19.5513H274.311ZM274.216 20.6446H273.811V22.3448H274.242C274.684 22.3448 274.999 22.2717 275.189 22.1253C275.381 21.9761 275.477 21.758 275.477 21.471C275.477 21.1726 275.374 20.9602 275.167 20.834C274.963 20.7077 274.646 20.6446 274.216 20.6446ZM278.296 25.8444V19.5513H279.631V25.8444H278.296ZM283.643 25.8444H282.308V20.6618H280.599V19.5513H285.351V20.6618H283.643V25.8444ZM288.279 22.1425L289.591 19.5513H291.029L288.941 23.3951V25.8444H287.616V23.4382L285.528 19.5513H286.974L288.279 22.1425Z" fill="#F4F4F4"/>
<ellipse cx="300.735" cy="22.8779" rx="0.83224" ry="0.851653" fill="#DCDCDC"/>
<path d="M316.09 19.5513V23.6233C316.09 24.0566 315.994 24.4483 315.802 24.7984C315.612 25.1456 315.324 25.4211 314.937 25.6248C314.552 25.8286 314.067 25.9304 313.482 25.9304C312.649 25.9304 312.015 25.7181 311.579 25.2934C311.143 24.8687 310.925 24.3062 310.925 23.606V19.5513H312.255V23.4037C312.255 23.9231 312.361 24.2876 312.573 24.4971C312.786 24.7066 313.1 24.8113 313.516 24.8113C313.809 24.8113 314.045 24.7611 314.226 24.6606C314.41 24.5602 314.545 24.4052 314.631 24.1958C314.717 23.9863 314.76 23.7194 314.76 23.3951V19.5513H316.09ZM320.885 24.4153C320.885 24.7424 320.808 25.0193 320.653 25.246C320.501 25.4699 320.273 25.6406 319.968 25.7583C319.664 25.8731 319.285 25.9304 318.832 25.9304C318.496 25.9304 318.208 25.9089 317.967 25.8659C317.729 25.8228 317.488 25.7511 317.244 25.6507V24.5659C317.505 24.6836 317.785 24.7812 318.083 24.8586C318.384 24.9333 318.648 24.9706 318.875 24.9706C319.13 24.9706 319.313 24.9333 319.422 24.8586C319.534 24.7812 319.59 24.6807 319.59 24.5573C319.59 24.477 319.567 24.4052 319.521 24.3421C319.478 24.2761 319.383 24.2029 319.237 24.1226C319.09 24.0394 318.861 23.9317 318.548 23.7997C318.247 23.6735 317.998 23.5458 317.803 23.4166C317.611 23.2875 317.468 23.1354 317.373 22.9604C317.281 22.7825 317.235 22.5572 317.235 22.2846C317.235 21.8398 317.407 21.5055 317.752 21.2816C318.099 21.0549 318.562 20.9416 319.142 20.9416C319.44 20.9416 319.724 20.9717 319.994 21.032C320.267 21.0922 320.547 21.1884 320.834 21.3204L320.438 22.2674C320.199 22.1641 319.974 22.0794 319.762 22.0134C319.552 21.9474 319.339 21.9144 319.12 21.9144C318.928 21.9144 318.783 21.9402 318.686 21.9919C318.588 22.0435 318.539 22.1224 318.539 22.2286C318.539 22.3061 318.564 22.375 318.613 22.4352C318.664 22.4955 318.762 22.5629 318.905 22.6375C319.052 22.7093 319.265 22.8025 319.547 22.9173C319.819 23.0292 320.056 23.1469 320.257 23.2703C320.458 23.3908 320.613 23.5415 320.722 23.7223C320.831 23.9002 320.885 24.1312 320.885 24.4153ZM323.894 20.9416C324.339 20.9416 324.722 21.0277 325.043 21.1999C325.365 21.3692 325.613 21.616 325.788 21.9402C325.963 22.2645 326.051 22.6605 326.051 23.1283V23.7653H322.947C322.961 24.1355 323.072 24.4268 323.279 24.6391C323.488 24.8486 323.778 24.9533 324.148 24.9533C324.455 24.9533 324.736 24.9218 324.992 24.8586C325.247 24.7955 325.51 24.7008 325.779 24.5745V25.5904C325.541 25.7081 325.292 25.7941 325.03 25.8487C324.772 25.9032 324.458 25.9304 324.088 25.9304C323.606 25.9304 323.178 25.8415 322.805 25.6636C322.435 25.4857 322.144 25.2145 321.931 24.85C321.722 24.4856 321.617 24.0264 321.617 23.4726C321.617 22.9102 321.712 22.4424 321.901 22.0694C322.093 21.6934 322.36 21.4122 322.702 21.2257C323.043 21.0363 323.441 20.9416 323.894 20.9416ZM323.903 21.8757C323.647 21.8757 323.435 21.9574 323.266 22.121C323.099 22.2846 323.003 22.5414 322.977 22.8915H324.82C324.817 22.6964 324.781 22.5228 324.712 22.3707C324.646 22.2186 324.545 22.0981 324.411 22.0091C324.279 21.9201 324.109 21.8757 323.903 21.8757ZM331.38 20.933C332.025 20.933 332.52 21.0736 332.865 21.3548C333.209 21.636 333.381 22.0636 333.381 22.6375V25.8444H332.464L332.21 25.1901H332.176C332.038 25.3623 331.897 25.5029 331.754 25.6119C331.611 25.721 331.446 25.8013 331.259 25.853C331.072 25.9046 330.846 25.9304 330.579 25.9304C330.295 25.9304 330.039 25.8759 329.813 25.7669C329.589 25.6578 329.412 25.4914 329.283 25.2676C329.154 25.0409 329.09 24.7539 329.09 24.4067C329.09 23.8959 329.269 23.52 329.628 23.2789C329.986 23.035 330.524 22.9001 331.242 22.8743L332.077 22.8485V22.6375C332.077 22.385 332.011 22.1999 331.879 22.0823C331.747 21.9646 331.563 21.9058 331.328 21.9058C331.095 21.9058 330.867 21.9388 330.643 22.0048C330.42 22.0708 330.196 22.154 329.972 22.2544L329.537 21.3677C329.793 21.2329 330.078 21.1267 330.394 21.0492C330.712 20.9717 331.041 20.933 331.38 20.933ZM332.077 23.6147L331.569 23.6319C331.144 23.6434 330.849 23.7194 330.682 23.86C330.519 24.0006 330.437 24.1857 330.437 24.4153C330.437 24.6162 330.496 24.7596 330.613 24.8457C330.731 24.9289 330.885 24.9706 331.074 24.9706C331.355 24.9706 331.592 24.8873 331.784 24.7209C331.979 24.5545 332.077 24.3177 332.077 24.0107V23.6147ZM336.691 25.9304C336.215 25.9304 335.809 25.8444 335.473 25.6722C335.137 25.4971 334.882 25.2274 334.707 24.8629C334.532 24.4985 334.444 24.0322 334.444 23.464C334.444 22.8757 334.543 22.3965 334.741 22.0263C334.942 21.6533 335.219 21.3792 335.572 21.2042C335.928 21.0291 336.34 20.9416 336.807 20.9416C337.14 20.9416 337.427 20.9746 337.668 21.0406C337.912 21.1037 338.125 21.1798 338.305 21.2687L337.918 22.2846C337.711 22.2014 337.519 22.1339 337.341 22.0823C337.163 22.0277 336.985 22.0005 336.807 22.0005C336.578 22.0005 336.387 22.055 336.235 22.1641C336.083 22.2702 335.969 22.4309 335.895 22.6462C335.82 22.8614 335.783 23.1311 335.783 23.4554C335.783 23.7739 335.823 24.0379 335.903 24.2474C335.984 24.4569 336.1 24.6133 336.252 24.7166C336.404 24.817 336.589 24.8672 336.807 24.8672C337.08 24.8672 337.323 24.8314 337.535 24.7596C337.747 24.685 337.954 24.5817 338.155 24.4497V25.5732C337.954 25.6994 337.743 25.7898 337.522 25.8444C337.304 25.9018 337.027 25.9304 336.691 25.9304ZM341.301 24.8845C341.445 24.8845 341.584 24.8701 341.719 24.8414C341.857 24.8127 341.993 24.7769 342.128 24.7338V25.7109C341.987 25.7741 341.812 25.8257 341.603 25.8659C341.396 25.9089 341.169 25.9304 340.922 25.9304C340.636 25.9304 340.377 25.8845 340.148 25.7927C339.921 25.698 339.742 25.5359 339.61 25.3063C339.48 25.0739 339.416 24.751 339.416 24.3378V22.0177H338.787V21.4624L339.511 21.0234L339.889 20.0075H340.729V21.032H342.076V22.0177H340.729V24.3378C340.729 24.5215 340.78 24.6592 340.884 24.751C340.99 24.84 341.129 24.8845 341.301 24.8845ZM344.418 21.032V25.8444H343.105V21.032H344.418ZM343.763 19.1466C343.959 19.1466 344.126 19.1925 344.267 19.2844C344.408 19.3733 344.478 19.5412 344.478 19.788C344.478 20.0319 344.408 20.2012 344.267 20.2959C344.126 20.3877 343.959 20.4337 343.763 20.4337C343.565 20.4337 343.396 20.3877 343.255 20.2959C343.118 20.2012 343.049 20.0319 343.049 19.788C343.049 19.5412 343.118 19.3733 343.255 19.2844C343.396 19.1925 343.565 19.1466 343.763 19.1466ZM346.944 25.8444L345.111 21.032H346.484L347.414 23.7739C347.465 23.9346 347.505 24.1039 347.534 24.2818C347.566 24.4598 347.587 24.619 347.599 24.7596H347.633C347.642 24.6075 347.662 24.4454 347.693 24.2732C347.728 24.1011 347.772 23.9346 347.827 23.7739L348.752 21.032H350.125L348.292 25.8444H346.944ZM352.803 20.9416C353.248 20.9416 353.631 21.0277 353.952 21.1999C354.273 21.3692 354.522 21.616 354.697 21.9402C354.872 22.2645 354.959 22.6605 354.959 23.1283V23.7653H351.856C351.87 24.1355 351.981 24.4268 352.187 24.6391C352.397 24.8486 352.687 24.9533 353.057 24.9533C353.364 24.9533 353.645 24.9218 353.9 24.8586C354.156 24.7955 354.418 24.7008 354.688 24.5745V25.5904C354.45 25.7081 354.2 25.7941 353.939 25.8487C353.681 25.9032 353.367 25.9304 352.996 25.9304C352.514 25.9304 352.087 25.8415 351.714 25.6636C351.344 25.4857 351.052 25.2145 350.84 24.85C350.63 24.4856 350.526 24.0264 350.526 23.4726C350.526 22.9102 350.62 22.4424 350.81 22.0694C351.002 21.6934 351.269 21.4122 351.61 21.2257C351.952 21.0363 352.349 20.9416 352.803 20.9416ZM352.811 21.8757C352.556 21.8757 352.344 21.9574 352.174 22.121C352.008 22.2846 351.912 22.5414 351.886 22.8915H353.728C353.725 22.6964 353.689 22.5228 353.621 22.3707C353.555 22.2186 353.454 22.0981 353.319 22.0091C353.187 21.9201 353.018 21.8757 352.811 21.8757ZM359.462 25.8444L357.628 21.032H359.001L359.931 23.7739C359.983 23.9346 360.023 24.1039 360.051 24.2818C360.083 24.4598 360.105 24.619 360.116 24.7596H360.15C360.159 24.6075 360.179 24.4454 360.211 24.2732C360.245 24.1011 360.29 23.9346 360.344 23.7739L361.27 21.032H362.643L360.809 25.8444H359.462ZM367.709 23.4296C367.709 23.8313 367.655 24.1871 367.546 24.4971C367.439 24.807 367.283 25.0696 367.076 25.2848C366.873 25.4971 366.626 25.6578 366.336 25.7669C366.049 25.8759 365.725 25.9304 365.363 25.9304C365.025 25.9304 364.713 25.8759 364.429 25.7669C364.148 25.6578 363.903 25.4971 363.693 25.2848C363.486 25.0696 363.326 24.807 363.211 24.4971C363.099 24.1871 363.043 23.8313 363.043 23.4296C363.043 22.8958 363.138 22.4438 363.327 22.0737C363.517 21.7035 363.786 21.4223 364.136 21.23C364.486 21.0377 364.904 20.9416 365.389 20.9416C365.84 20.9416 366.238 21.0377 366.586 21.23C366.936 21.4223 367.21 21.7035 367.408 22.0737C367.609 22.4438 367.709 22.8958 367.709 23.4296ZM364.382 23.4296C364.382 23.7452 364.416 24.0107 364.485 24.2259C364.554 24.4411 364.662 24.6032 364.808 24.7123C364.954 24.8213 365.145 24.8759 365.38 24.8759C365.613 24.8759 365.801 24.8213 365.944 24.7123C366.091 24.6032 366.197 24.4411 366.263 24.2259C366.332 24.0107 366.366 23.7452 366.366 23.4296C366.366 23.111 366.332 22.847 366.263 22.6375C366.197 22.4252 366.091 22.2659 365.944 22.1597C365.798 22.0536 365.607 22.0005 365.372 22.0005C365.025 22.0005 364.772 22.1196 364.614 22.3578C364.459 22.5959 364.382 22.9532 364.382 23.4296ZM370.107 21.032V25.8444H368.794V21.032H370.107ZM369.452 19.1466C369.648 19.1466 369.815 19.1925 369.956 19.2844C370.097 19.3733 370.167 19.5412 370.167 19.788C370.167 20.0319 370.097 20.2012 369.956 20.2959C369.815 20.3877 369.648 20.4337 369.452 20.4337C369.254 20.4337 369.085 20.3877 368.944 20.2959C368.807 20.2012 368.738 20.0319 368.738 19.788C368.738 19.5412 368.807 19.3733 368.944 19.2844C369.085 19.1925 369.254 19.1466 369.452 19.1466ZM373.443 25.9304C372.966 25.9304 372.56 25.8444 372.224 25.6722C371.889 25.4971 371.633 25.2274 371.458 24.8629C371.283 24.4985 371.196 24.0322 371.196 23.464C371.196 22.8757 371.295 22.3965 371.493 22.0263C371.694 21.6533 371.971 21.3792 372.323 21.2042C372.679 21.0291 373.091 20.9416 373.559 20.9416C373.892 20.9416 374.179 20.9746 374.42 21.0406C374.664 21.1037 374.876 21.1798 375.057 21.2687L374.669 22.2846C374.463 22.2014 374.271 22.1339 374.093 22.0823C373.915 22.0277 373.737 22.0005 373.559 22.0005C373.329 22.0005 373.138 22.055 372.986 22.1641C372.834 22.2702 372.721 22.4309 372.646 22.6462C372.572 22.8614 372.534 23.1311 372.534 23.4554C372.534 23.7739 372.575 24.0379 372.655 24.2474C372.735 24.4569 372.851 24.6133 373.004 24.7166C373.156 24.817 373.341 24.8672 373.559 24.8672C373.831 24.8672 374.074 24.8314 374.286 24.7596C374.499 24.685 374.705 24.5817 374.906 24.4497V25.5732C374.705 25.6994 374.494 25.7898 374.273 25.8444C374.055 25.9018 373.778 25.9304 373.443 25.9304ZM378.01 20.9416C378.454 20.9416 378.838 21.0277 379.159 21.1999C379.48 21.3692 379.729 21.616 379.904 21.9402C380.079 22.2645 380.166 22.6605 380.166 23.1283V23.7653H377.063C377.077 24.1355 377.187 24.4268 377.394 24.6391C377.604 24.8486 377.893 24.9533 378.264 24.9533C378.571 24.9533 378.852 24.9218 379.107 24.8586C379.363 24.7955 379.625 24.7008 379.895 24.5745V25.5904C379.657 25.7081 379.407 25.7941 379.146 25.8487C378.888 25.9032 378.574 25.9304 378.203 25.9304C377.721 25.9304 377.294 25.8415 376.921 25.6636C376.55 25.4857 376.259 25.2145 376.047 24.85C375.837 24.4856 375.733 24.0264 375.733 23.4726C375.733 22.9102 375.827 22.4424 376.017 22.0694C376.209 21.6934 376.476 21.4122 376.817 21.2257C377.159 21.0363 377.556 20.9416 378.01 20.9416ZM378.018 21.8757C377.763 21.8757 377.551 21.9574 377.381 22.121C377.215 22.2846 377.119 22.5414 377.093 22.8915H378.935C378.932 22.6964 378.896 22.5228 378.827 22.3707C378.761 22.2186 378.661 22.0981 378.526 22.0091C378.394 21.9201 378.225 21.8757 378.018 21.8757Z" fill="#F4F4F4"/>
<path d="M255.856 37.0538L397.102 37.0538" stroke="#72E3AC" stroke-width="0.790598"/>
<line x1="255.856" y1="44.19" x2="352.495" y2="44.19" stroke="#72E3AC" stroke-width="0.790598"/>
<line x1="255.856" y1="51.4727" x2="300.735" y2="51.4727" stroke="#72E3AC" stroke-width="0.790598"/>
<line x1="362.127" y1="44.19" x2="397.07" y2="44.19" stroke="#72E3AC" stroke-width="0.790598"/>
<path d="M244.665 23.1779V22.6713C244.665 20.5302 242.941 18.7886 240.8 18.7676V27.0055C242.928 27.0265 244.665 25.3066 244.665 23.1779Z" fill="white"/>
<ellipse cx="284.656" cy="72.4161" rx="0.83224" ry="0.851653" fill="#DCDCDC"/>
<path d="M295.669 69.0895C296.24 69.0895 296.71 69.1583 297.081 69.2961C297.454 69.4338 297.731 69.6419 297.911 69.9202C298.092 70.1986 298.182 70.5501 298.182 70.9748C298.182 71.2618 298.128 71.5129 298.019 71.7281C297.91 71.9433 297.766 72.1255 297.588 72.2748C297.411 72.424 297.218 72.5459 297.012 72.6406L298.863 75.3826H297.382L295.88 72.9678H295.169V75.3826H293.835V69.0895H295.669ZM295.574 70.1828H295.169V71.883H295.6C296.042 71.883 296.357 71.8099 296.547 71.6635C296.739 71.5143 296.835 71.2962 296.835 71.0092C296.835 70.7108 296.732 70.4984 296.525 70.3722C296.322 70.2459 296.004 70.1828 295.574 70.1828ZM301.536 70.4798C301.98 70.4798 302.364 70.5659 302.685 70.7381C303.006 70.9074 303.255 71.1542 303.43 71.4784C303.605 71.8027 303.692 72.1987 303.692 72.6665V73.3035H300.589C300.603 73.6737 300.714 73.965 300.92 74.1773C301.13 74.3868 301.419 74.4915 301.79 74.4915C302.097 74.4915 302.378 74.46 302.633 74.3968C302.889 74.3337 303.151 74.239 303.421 74.1128V75.1286C303.183 75.2463 302.933 75.3323 302.672 75.3869C302.414 75.4414 302.1 75.4687 301.729 75.4687C301.247 75.4687 300.82 75.3797 300.447 75.2018C300.076 75.0239 299.785 74.7527 299.573 74.3882C299.363 74.0238 299.259 73.5647 299.259 73.0108C299.259 72.4484 299.353 71.9806 299.543 71.6076C299.735 71.2316 300.002 70.9504 300.343 70.7639C300.685 70.5745 301.082 70.4798 301.536 70.4798ZM301.544 71.4139C301.289 71.4139 301.077 71.4956 300.907 71.6592C300.741 71.8228 300.645 72.0796 300.619 72.4297H302.461C302.458 72.2346 302.422 72.061 302.353 71.9089C302.287 71.7568 302.187 71.6363 302.052 71.5473C301.92 71.4583 301.751 71.4139 301.544 71.4139ZM308.715 75.3826L308.345 73.6995C308.325 73.5991 308.292 73.4513 308.246 73.2562C308.2 73.0582 308.15 72.8472 308.096 72.6234C308.044 72.3967 307.995 72.1872 307.949 71.995C307.906 71.8027 307.875 71.6621 307.855 71.5731H307.816C307.796 71.6621 307.764 71.8027 307.721 71.995C307.678 72.1872 307.629 72.3967 307.575 72.6234C307.523 72.8501 307.474 73.0639 307.428 73.2648C307.383 73.4628 307.348 73.6134 307.325 73.7167L306.938 75.3826H305.526L304.157 70.5702H305.466L306.021 72.7009C306.058 72.8501 306.094 73.028 306.129 73.2346C306.163 73.4384 306.193 73.6364 306.219 73.8287C306.248 74.0181 306.269 74.1687 306.283 74.2806H306.318C306.324 74.1974 306.335 74.0869 306.352 73.9492C306.372 73.8114 306.394 73.6694 306.417 73.523C306.443 73.3738 306.466 73.2404 306.486 73.1227C306.509 73.0022 306.526 72.9204 306.537 72.8774L307.131 70.5702H308.578L309.142 72.8774C309.162 72.9606 309.188 73.0926 309.219 73.2734C309.254 73.4542 309.284 73.6407 309.309 73.833C309.335 74.0224 309.35 74.1716 309.353 74.2806H309.387C309.398 74.1831 309.419 74.0381 309.447 73.8459C309.476 73.6536 309.509 73.4527 309.546 73.2433C309.586 73.0309 309.627 72.8501 309.667 72.7009L310.244 70.5702H311.531L310.145 75.3826H308.715ZM314.996 70.4798C315.062 70.4798 315.138 70.4841 315.224 70.4927C315.313 70.4984 315.385 70.5071 315.439 70.5185L315.34 71.7496C315.297 71.7353 315.235 71.7252 315.155 71.7195C315.077 71.7109 315.01 71.7066 314.953 71.7066C314.783 71.7066 314.618 71.7281 314.458 71.7711C314.3 71.8142 314.158 71.8845 314.031 71.9821C313.905 72.0767 313.805 72.203 313.73 72.3608C313.658 72.5158 313.623 72.7066 313.623 72.9333V75.3826H312.31V70.5702H313.304L313.498 71.3794H313.562C313.657 71.2159 313.775 71.0666 313.915 70.9318C314.059 70.794 314.221 70.685 314.402 70.6046C314.585 70.5214 314.783 70.4798 314.996 70.4798ZM317.626 70.5702V75.3826H316.313V70.5702H317.626ZM316.971 68.6848C317.167 68.6848 317.334 68.7308 317.475 68.8226C317.616 68.9115 317.686 69.0794 317.686 69.3262C317.686 69.5701 317.616 69.7394 317.475 69.8341C317.334 69.926 317.167 69.9719 316.971 69.9719C316.773 69.9719 316.604 69.926 316.463 69.8341C316.326 69.7394 316.257 69.5701 316.257 69.3262C316.257 69.0794 316.326 68.9115 316.463 68.8226C316.604 68.7308 316.773 68.6848 316.971 68.6848ZM321.035 74.4227C321.178 74.4227 321.317 74.4083 321.452 74.3796C321.59 74.3509 321.726 74.3151 321.861 74.272V75.2491C321.721 75.3123 321.546 75.3639 321.336 75.4041C321.13 75.4471 320.903 75.4687 320.656 75.4687C320.369 75.4687 320.111 75.4227 319.881 75.3309C319.655 75.2362 319.475 75.0741 319.343 74.8445C319.214 74.6121 319.149 74.2892 319.149 73.876V71.5559H318.521V71.0006L319.244 70.5616L319.623 69.5457H320.462V70.5702H321.81V71.5559H320.462V73.876C320.462 74.0597 320.514 74.1974 320.617 74.2892C320.723 74.3782 320.863 74.4227 321.035 74.4227ZM324.823 70.4798C325.268 70.4798 325.651 70.5659 325.972 70.7381C326.293 70.9074 326.542 71.1542 326.717 71.4784C326.892 71.8027 326.979 72.1987 326.979 72.6665V73.3035H323.876C323.89 73.6737 324.001 73.965 324.207 74.1773C324.417 74.3868 324.707 74.4915 325.077 74.4915C325.384 74.4915 325.665 74.46 325.92 74.3968C326.176 74.3337 326.438 74.239 326.708 74.1128V75.1286C326.47 75.2463 326.22 75.3323 325.959 75.3869C325.701 75.4414 325.387 75.4687 325.016 75.4687C324.534 75.4687 324.107 75.3797 323.734 75.2018C323.364 75.0239 323.072 74.7527 322.86 74.3882C322.65 74.0238 322.546 73.5647 322.546 73.0108C322.546 72.4484 322.64 71.9806 322.83 71.6076C323.022 71.2316 323.289 70.9504 323.63 70.7639C323.972 70.5745 324.369 70.4798 324.823 70.4798ZM324.831 71.4139C324.576 71.4139 324.364 71.4956 324.194 71.6592C324.028 71.8228 323.932 72.0796 323.906 72.4297H325.748C325.745 72.2346 325.709 72.061 325.641 71.9089C325.575 71.7568 325.474 71.6363 325.339 71.5473C325.207 71.4583 325.038 71.4139 324.831 71.4139ZM332.997 71.5559H331.861V75.3826H330.548V71.5559H329.825V70.9232L330.548 70.5702V70.2172C330.548 69.8069 330.617 69.4883 330.754 69.2616C330.895 69.0321 331.091 68.8714 331.344 68.7795C331.599 68.6848 331.901 68.6375 332.248 68.6375C332.503 68.6375 332.736 68.659 332.945 68.7021C333.155 68.7422 333.325 68.7881 333.457 68.8398L333.122 69.804C333.021 69.7724 332.912 69.7437 332.795 69.7179C332.677 69.6921 332.542 69.6792 332.39 69.6792C332.206 69.6792 332.071 69.7351 331.985 69.847C331.902 69.9561 331.861 70.0967 331.861 70.2689V70.5702H332.997V71.5559ZM338.128 72.9678C338.128 73.3695 338.073 73.7254 337.964 74.0353C337.858 74.3452 337.702 74.6078 337.495 74.823C337.291 75.0353 337.045 75.196 336.755 75.3051C336.468 75.4141 336.143 75.4687 335.782 75.4687C335.443 75.4687 335.132 75.4141 334.848 75.3051C334.567 75.196 334.321 75.0353 334.112 74.823C333.905 74.6078 333.744 74.3452 333.63 74.0353C333.518 73.7254 333.462 73.3695 333.462 72.9678C333.462 72.434 333.556 71.9821 333.746 71.6119C333.935 71.2417 334.205 70.9605 334.555 70.7682C334.905 70.5759 335.323 70.4798 335.808 70.4798C336.258 70.4798 336.657 70.5759 337.004 70.7682C337.354 70.9605 337.628 71.2417 337.826 71.6119C338.027 71.9821 338.128 72.434 338.128 72.9678ZM334.8 72.9678C334.8 73.2834 334.835 73.5489 334.904 73.7641C334.973 73.9793 335.08 74.1415 335.227 74.2505C335.373 74.3595 335.564 74.4141 335.799 74.4141C336.032 74.4141 336.219 74.3595 336.363 74.2505C336.509 74.1415 336.616 73.9793 336.682 73.7641C336.75 73.5489 336.785 73.2834 336.785 72.9678C336.785 72.6492 336.75 72.3852 336.682 72.1758C336.616 71.9634 336.509 71.8041 336.363 71.698C336.217 71.5918 336.026 71.5387 335.79 71.5387C335.443 71.5387 335.191 71.6578 335.033 71.896C334.878 72.1341 334.8 72.4914 334.8 72.9678ZM341.899 70.4798C341.965 70.4798 342.041 70.4841 342.127 70.4927C342.216 70.4984 342.287 70.5071 342.342 70.5185L342.243 71.7496C342.2 71.7353 342.138 71.7252 342.058 71.7195C341.98 71.7109 341.913 71.7066 341.855 71.7066C341.686 71.7066 341.521 71.7281 341.36 71.7711C341.203 71.8142 341.061 71.8845 340.934 71.9821C340.808 72.0767 340.708 72.203 340.633 72.3608C340.561 72.5158 340.525 72.7066 340.525 72.9333V75.3826H339.213V70.5702H340.207L340.401 71.3794H340.465C340.56 71.2159 340.677 71.0666 340.818 70.9318C340.962 70.794 341.124 70.685 341.304 70.6046C341.488 70.5214 341.686 70.4798 341.899 70.4798ZM348.166 71.5559H347.029V75.3826H345.717V71.5559H344.993V70.9232L345.717 70.5702V70.2172C345.717 69.8069 345.785 69.4883 345.923 69.2616C346.064 69.0321 346.26 68.8714 346.513 68.7795C346.768 68.6848 347.07 68.6375 347.417 68.6375C347.672 68.6375 347.905 68.659 348.114 68.7021C348.324 68.7422 348.494 68.7881 348.626 68.8398L348.291 69.804C348.19 69.7724 348.081 69.7437 347.963 69.7179C347.846 69.6921 347.711 69.6792 347.559 69.6792C347.375 69.6792 347.24 69.7351 347.154 69.847C347.071 69.9561 347.029 70.0967 347.029 70.2689V70.5702H348.166V71.5559ZM350.232 75.3826H348.919V68.6848H350.232V75.3826ZM356.026 70.5702V75.3826H355.018L354.842 74.767H354.773C354.67 74.9306 354.541 75.064 354.386 75.1673C354.231 75.2707 354.06 75.3467 353.873 75.3955C353.687 75.4443 353.493 75.4687 353.292 75.4687C352.948 75.4687 352.648 75.4084 352.393 75.2879C352.137 75.1645 351.938 74.9736 351.794 74.7154C351.654 74.4571 351.584 74.1214 351.584 73.7081V70.5702H352.896V73.381C352.896 73.7254 352.958 73.9851 353.081 74.1601C353.205 74.3352 353.401 74.4227 353.671 74.4227C353.938 74.4227 354.148 74.3624 354.3 74.2419C354.452 74.1185 354.558 73.9391 354.618 73.7038C354.681 73.4657 354.713 73.1758 354.713 72.8343V70.5702H356.026ZM359.387 70.4798C359.832 70.4798 360.215 70.5659 360.537 70.7381C360.858 70.9074 361.106 71.1542 361.281 71.4784C361.456 71.8027 361.544 72.1987 361.544 72.6665V73.3035H358.441C358.455 73.6737 358.565 73.965 358.772 74.1773C358.981 74.3868 359.271 74.4915 359.641 74.4915C359.949 74.4915 360.23 74.46 360.485 74.3968C360.741 74.3337 361.003 74.239 361.273 74.1128V75.1286C361.035 75.2463 360.785 75.3323 360.524 75.3869C360.266 75.4414 359.951 75.4687 359.581 75.4687C359.099 75.4687 358.672 75.3797 358.298 75.2018C357.928 75.0239 357.637 74.7527 357.425 74.3882C357.215 74.0238 357.11 73.5647 357.11 73.0108C357.11 72.4484 357.205 71.9806 357.395 71.6076C357.587 71.2316 357.854 70.9504 358.195 70.7639C358.537 70.5745 358.934 70.4798 359.387 70.4798ZM359.396 71.4139C359.141 71.4139 358.928 71.4956 358.759 71.6592C358.593 71.8228 358.496 72.0796 358.471 72.4297H360.313C360.31 72.2346 360.274 72.061 360.205 71.9089C360.139 71.7568 360.039 71.6363 359.904 71.5473C359.772 71.4583 359.603 71.4139 359.396 71.4139ZM365.345 70.4798C365.859 70.4798 366.272 70.6204 366.585 70.9016C366.897 71.18 367.054 71.6277 367.054 72.2446V75.3826H365.741V72.5718C365.741 72.2274 365.678 71.9677 365.551 71.7927C365.428 71.6176 365.233 71.5301 364.966 71.5301C364.564 71.5301 364.29 71.6664 364.144 71.939C363.998 72.2116 363.924 72.6048 363.924 73.1184V75.3826H362.612V70.5702H363.614L363.791 71.1857H363.864C363.967 71.0193 364.095 70.8844 364.247 70.7811C364.402 70.6778 364.573 70.6018 364.759 70.553C364.949 70.5042 365.144 70.4798 365.345 70.4798ZM370.36 75.4687C369.883 75.4687 369.477 75.3826 369.141 75.2104C368.806 75.0353 368.55 74.7656 368.375 74.4012C368.2 74.0367 368.113 73.5704 368.113 73.0022C368.113 72.4139 368.212 71.9347 368.41 71.5645C368.61 71.1915 368.887 70.9174 369.24 70.7424C369.596 70.5673 370.008 70.4798 370.476 70.4798C370.809 70.4798 371.096 70.5128 371.337 70.5788C371.581 70.6419 371.793 70.718 371.974 70.8069L371.586 71.8228C371.38 71.7396 371.187 71.6721 371.01 71.6205C370.832 71.566 370.654 71.5387 370.476 71.5387C370.246 71.5387 370.055 71.5932 369.903 71.7023C369.751 71.8084 369.638 71.9691 369.563 72.1844C369.489 72.3996 369.451 72.6693 369.451 72.9936C369.451 73.3121 369.491 73.5761 369.572 73.7856C369.652 73.9951 369.768 74.1515 369.92 74.2548C370.073 74.3552 370.258 74.4055 370.476 74.4055C370.748 74.4055 370.991 74.3696 371.203 74.2978C371.416 74.2232 371.622 74.1199 371.823 73.9879V75.1114C371.622 75.2377 371.411 75.328 371.19 75.3826C370.972 75.44 370.695 75.4687 370.36 75.4687ZM372.254 70.5702H373.691L374.599 73.2777C374.628 73.3638 374.653 73.4513 374.673 73.5403C374.693 73.6292 374.71 73.721 374.724 73.8157C374.739 73.9104 374.75 74.0094 374.759 74.1128H374.785C374.802 73.9578 374.825 73.8129 374.853 73.678C374.885 73.5431 374.924 73.4097 374.97 73.2777L375.861 70.5702H377.268L375.232 75.9981C375.109 76.331 374.948 76.6079 374.75 76.8289C374.552 77.0527 374.324 77.2206 374.066 77.3325C373.81 77.4444 373.529 77.5004 373.222 77.5004C373.073 77.5004 372.944 77.4918 372.835 77.4745C372.726 77.4602 372.632 77.4444 372.555 77.4272V76.3855C372.615 76.3999 372.691 76.4128 372.783 76.4242C372.875 76.4357 372.971 76.4415 373.071 76.4415C373.255 76.4415 373.413 76.4027 373.545 76.3252C373.677 76.2478 373.787 76.143 373.876 76.011C373.965 75.8819 374.036 75.7398 374.087 75.5849L374.165 75.3481L372.254 70.5702Z" fill="#F4F4F4"/>
<path d="M255.856 86.5922L397.102 86.5922" stroke="#72E3AC" stroke-width="0.790598"/>
<line x1="255.856" y1="93.7286" x2="352.495" y2="93.7286" stroke="#72E3AC" stroke-width="0.790598"/>
<line x1="255.856" y1="101.011" x2="300.735" y2="101.011" stroke="#72E3AC" stroke-width="0.790598"/>
<line x1="362.127" y1="93.7286" x2="397.07" y2="93.7286" stroke="#72E3AC" stroke-width="0.790598"/>
<path d="M244.665 72.7163V72.2097C244.665 70.0686 242.941 68.3271 240.8 68.306V76.544C242.928 76.5649 244.665 74.8451 244.665 72.7163Z" fill="white"/>
<rect x="346.809" y="114.9" width="51.6524" height="16.1336" rx="8.06678" fill="#18AB64"/>
<path d="M364.026 125.467L363.474 123.9H361.316L360.764 125.467H359.788L361.888 119.8H362.914L365.011 125.467H364.026ZM363.235 123.105L362.698 121.56C362.678 121.493 362.648 121.4 362.609 121.279C362.571 121.155 362.532 121.03 362.494 120.904C362.455 120.775 362.423 120.667 362.397 120.58C362.371 120.685 362.339 120.804 362.301 120.935C362.265 121.064 362.229 121.185 362.193 121.298C362.159 121.411 362.133 121.499 362.115 121.56L361.575 123.105H363.235ZM367.385 125.544C366.981 125.544 366.631 125.466 366.335 125.309C366.039 125.152 365.811 124.911 365.651 124.587C365.492 124.263 365.412 123.851 365.412 123.352C365.412 122.832 365.5 122.407 365.675 122.078C365.85 121.748 366.091 121.505 366.4 121.348C366.712 121.191 367.068 121.113 367.47 121.113C367.724 121.113 367.955 121.138 368.161 121.19C368.369 121.239 368.545 121.299 368.689 121.371L368.419 122.097C368.262 122.033 368.101 121.979 367.937 121.935C367.772 121.891 367.614 121.869 367.462 121.869C367.212 121.869 367.004 121.925 366.837 122.035C366.672 122.146 366.548 122.311 366.466 122.529C366.386 122.748 366.346 123.02 366.346 123.344C366.346 123.658 366.387 123.923 366.47 124.139C366.552 124.353 366.674 124.515 366.837 124.625C366.999 124.734 367.198 124.788 367.435 124.788C367.669 124.788 367.879 124.759 368.064 124.703C368.249 124.646 368.424 124.573 368.589 124.483V125.27C368.427 125.363 368.253 125.431 368.068 125.475C367.883 125.521 367.655 125.544 367.385 125.544ZM371.315 125.544C370.91 125.544 370.56 125.466 370.265 125.309C369.969 125.152 369.741 124.911 369.581 124.587C369.422 124.263 369.342 123.851 369.342 123.352C369.342 122.832 369.429 122.407 369.604 122.078C369.779 121.748 370.021 121.505 370.33 121.348C370.642 121.191 370.998 121.113 371.399 121.113C371.654 121.113 371.885 121.138 372.09 121.19C372.299 121.239 372.475 121.299 372.619 121.371L372.349 122.097C372.192 122.033 372.031 121.979 371.867 121.935C371.702 121.891 371.544 121.869 371.392 121.869C371.142 121.869 370.934 121.925 370.766 122.035C370.602 122.146 370.478 122.311 370.396 122.529C370.316 122.748 370.276 123.02 370.276 123.344C370.276 123.658 370.317 123.923 370.4 124.139C370.482 124.353 370.604 124.515 370.766 124.625C370.928 124.734 371.128 124.788 371.365 124.788C371.599 124.788 371.809 124.759 371.994 124.703C372.179 124.646 372.354 124.573 372.519 124.483V125.27C372.357 125.363 372.183 125.431 371.998 125.475C371.813 125.521 371.585 125.544 371.315 125.544ZM375.225 121.113C375.606 121.113 375.933 121.191 376.206 121.348C376.478 121.505 376.688 121.728 376.835 122.016C376.982 122.304 377.055 122.649 377.055 123.05V123.537H374.202C374.212 123.951 374.323 124.27 374.534 124.494C374.748 124.718 375.046 124.83 375.43 124.83C375.702 124.83 375.947 124.804 376.163 124.753C376.382 124.699 376.607 124.62 376.839 124.517V125.255C376.625 125.355 376.408 125.428 376.186 125.475C375.965 125.521 375.7 125.544 375.391 125.544C374.972 125.544 374.602 125.463 374.283 125.301C373.967 125.136 373.718 124.892 373.538 124.568C373.361 124.243 373.272 123.841 373.272 123.359C373.272 122.881 373.353 122.474 373.515 122.139C373.677 121.805 373.905 121.55 374.198 121.375C374.492 121.2 374.834 121.113 375.225 121.113ZM375.225 121.796C374.939 121.796 374.708 121.889 374.53 122.074C374.355 122.259 374.252 122.531 374.221 122.888H376.167C376.164 122.675 376.128 122.486 376.059 122.321C375.992 122.156 375.889 122.027 375.75 121.935C375.614 121.842 375.439 121.796 375.225 121.796ZM380.271 121.113C380.778 121.113 381.184 121.298 381.49 121.668C381.799 122.039 381.954 122.59 381.954 123.321C381.954 123.805 381.882 124.212 381.737 124.544C381.596 124.874 381.396 125.123 381.139 125.293C380.884 125.461 380.587 125.544 380.247 125.544C380.031 125.544 379.843 125.516 379.684 125.459C379.524 125.403 379.388 125.329 379.275 125.239C379.161 125.147 379.066 125.046 378.989 124.938H378.935C378.948 125.041 378.959 125.156 378.97 125.282C378.982 125.405 378.989 125.519 378.989 125.621V127.362H378.078V121.194H378.819L378.946 121.784H378.989C379.069 121.663 379.165 121.551 379.278 121.448C379.394 121.345 379.533 121.264 379.695 121.205C379.86 121.143 380.052 121.113 380.271 121.113ZM380.027 121.854C379.778 121.854 379.577 121.904 379.425 122.004C379.276 122.102 379.166 122.25 379.097 122.448C379.03 122.646 378.994 122.895 378.989 123.193V123.321C378.989 123.637 379.021 123.906 379.085 124.128C379.152 124.346 379.262 124.514 379.414 124.629C379.568 124.743 379.776 124.799 380.039 124.799C380.26 124.799 380.443 124.739 380.587 124.618C380.734 124.497 380.843 124.324 380.915 124.1C380.987 123.877 381.023 123.613 381.023 123.309C381.023 122.848 380.941 122.491 380.776 122.236C380.614 121.981 380.364 121.854 380.027 121.854ZM384.594 124.811C384.712 124.811 384.83 124.8 384.945 124.78C385.061 124.757 385.167 124.73 385.262 124.699V125.386C385.162 125.43 385.032 125.467 384.872 125.498C384.712 125.529 384.546 125.544 384.374 125.544C384.132 125.544 383.915 125.504 383.722 125.425C383.529 125.342 383.376 125.202 383.262 125.004C383.149 124.806 383.092 124.532 383.092 124.182V121.885H382.51V121.479L383.135 121.159L383.432 120.244H384.003V121.194H385.227V121.885H384.003V124.17C384.003 124.386 384.058 124.547 384.166 124.653C384.274 124.758 384.417 124.811 384.594 124.811Z" fill="white"/>
</g>
<rect x="240.869" y="0.527187" width="169.715" height="138.828" rx="5.27065" stroke="white" stroke-width="1.05413"/>
<path d="M409.62 134.234L387.998 120.293L393.534 145.34L396.577 138.518L400.981 144.842L406.54 141.002L402.136 134.681L409.62 134.234Z" fill="black" stroke="white" stroke-width="1.05413" stroke-linecap="round" stroke-linejoin="round"/>
<path d="M333.205 201.347H337.357C338.138 198.995 340.348 197.303 342.962 197.303C344.298 197.303 345.525 197.749 346.512 198.497C347.335 194.829 350.537 192.031 354.473 191.881C355.682 191.834 356.843 192.045 357.901 192.464C359.547 186.304 365.166 181.766 371.844 181.766C373.118 181.766 374.355 181.936 375.535 182.246C375.116 181.305 374.848 180.28 374.768 179.199C374.397 174.167 378.173 169.785 383.204 169.413C384.088 169.348 384.954 169.413 385.781 169.587C387.117 160.874 394.645 154.197 403.735 154.197C406.293 154.197 408.724 154.728 410.934 155.683C413.981 148.051 421.439 142.653 430.157 142.653C441.588 142.653 450.856 151.921 450.856 163.352C450.856 163.63 450.847 163.907 450.837 164.184C452.427 163.648 454.129 163.352 455.902 163.352C464.634 163.352 471.711 170.429 471.711 179.161C471.711 181 471.391 182.768 470.818 184.409C475.097 185.523 478.534 188.707 480.006 192.826C480.26 192.803 480.518 192.788 480.782 192.788C485.587 192.788 489.504 196.593 489.693 201.351H490.718C495.843 201.351 500 205.508 500 210.634H323.937C323.937 205.508 328.093 201.351 333.219 201.351L333.205 201.347Z" fill="white" stroke="black" stroke-width="1.14423" stroke-linecap="round" stroke-linejoin="round"/>
<path d="M69.5825 31.48L247.39 30.4287C250.193 30.4115 252.688 32.1354 253.57 34.6887L299.894 169.07L97.67 170.066C92.064 170.101 89.8727 166.412 88.2794 161.047L55.5426 45.1044C54.6678 42.1929 55.8673 39.0572 58.4666 37.469L66.3984 32.3338" fill="#C7BDD4"/>
<path d="M69.5825 31.48L247.39 30.4287C250.193 30.4115 252.688 32.1354 253.57 34.6887L299.894 169.07L97.67 170.066C92.064 170.101 89.8727 166.412 88.2794 161.047L55.5426 45.1044C54.6678 42.1929 55.8673 39.0572 58.4666 37.469L66.3984 32.3338" stroke="black" stroke-width="0.844428" stroke-linecap="round" stroke-linejoin="round"/>
<path d="M306.631 165.906L99.7699 167.133L63.3963 39.7137C62.2215 35.6026 65.2991 31.5078 69.5822 31.4797L256.935 30.3673C259.738 30.3502 262.232 32.1412 263.119 34.7992L306.631 165.906Z" fill="white" stroke="black" stroke-width="0.844428" stroke-linecap="round" stroke-linejoin="round"/>
<path d="M103.636 161.985L68.3321 38.309C68.1846 37.7839 68.3636 37.3841 68.5473 37.141C68.731 36.898 69.0575 36.6128 69.6106 36.6077L256.971 35.4955C257.554 35.4909 258.063 35.8583 258.247 36.4139L299.533 160.823L103.636 161.985Z" fill="url(#paint1_linear_3987_23418)" stroke="black" stroke-width="0.844428" stroke-linecap="round" stroke-linejoin="round"/>
<path d="M100.464 167.13L306.444 165.91L413.516 226.575L184.618 227.558L100.306 167.642C100.077 167.482 100.195 167.126 100.472 167.123L100.464 167.13Z" fill="white" stroke="black" stroke-width="0.844428" stroke-linecap="round" stroke-linejoin="round"/>
<path d="M365.909 205.498L309.632 173.609C306.665 171.929 303.31 171.056 299.902 171.077L118.192 172.156C117.355 172.163 117.015 173.232 117.701 173.715L151.148 197.486L161.23 204.645C164.559 207.01 168.557 208.276 172.646 208.252L365.499 207.111C366.382 207.104 366.686 205.938 365.917 205.506L365.909 205.498Z" fill="white"/>
<path d="M365.909 205.498L309.632 173.609C306.665 171.929 303.31 171.056 299.902 171.077L118.192 172.156C117.355 172.163 117.015 173.232 117.701 173.715L151.148 197.486L161.23 204.645C164.559 207.01 168.557 208.276 172.646 208.252L365.499 207.111C366.382 207.104 366.686 205.938 365.917 205.506L365.909 205.498Z" stroke="black" stroke-width="0.844428" stroke-linecap="round" stroke-linejoin="round"/>
<path d="M318.343 222.465L300.704 212.47C299.771 211.946 298.722 211.666 297.654 211.677L240.712 212.011C240.45 212.007 240.347 212.348 240.553 212.501L251.033 219.95L254.192 222.194C255.233 222.936 256.489 223.332 257.767 223.325L318.207 222.97C318.483 222.975 318.58 222.604 318.336 222.465L318.343 222.465Z" fill="white" stroke="black" stroke-width="0.844428" stroke-linecap="round" stroke-linejoin="round"/>
<path d="M187.106 42.1533L154.509 42.3478C152.58 42.3582 150.583 40.8148 150.049 38.9021L149.269 36.1341L188.511 35.9014L189.44 38.6721C190.079 40.5793 189.034 42.1429 187.106 42.1533Z" fill="black"/>
<path d="M104.82 183.218C101.58 180.869 99.6821 177.096 99.716 173.103L99.7626 167.559C99.7658 167.379 99.9694 167.279 100.11 167.378L184.516 227.489C184.575 227.535 184.611 227.603 184.61 227.67L184.412 238.75C184.409 238.929 184.205 239.03 184.057 238.923L104.82 183.203L104.82 183.218Z" fill="#C7BDD4" stroke="black" stroke-width="0.844428" stroke-linecap="round" stroke-linejoin="round"/>
<path d="M184.604 227.937L413.503 226.595L413.531 231.364C413.552 234.811 410.766 237.626 407.314 237.646L184.669 238.951L184.604 227.937Z" fill="#F2E7FF" stroke="black" stroke-width="0.844428" stroke-linecap="round" stroke-linejoin="round"/>
<path d="M66.391 32.3339C66.391 32.3339 68.0428 31.4901 69.5751 31.4801L66.391 32.3339Z" fill="black"/>
<path d="M66.391 32.3339C66.391 32.3339 68.0428 31.4901 69.5751 31.4801" stroke="black" stroke-width="0.844428" stroke-linecap="round" stroke-linejoin="round"/>
<path d="M137.634 179.355C140.684 179.337 143.152 178.575 143.146 177.651C143.141 176.728 140.664 175.994 137.614 176.012C134.564 176.03 132.096 176.793 132.102 177.716C132.107 178.639 134.584 179.373 137.634 179.355Z" fill="#C4C4C4" stroke="black" stroke-width="0.844428" stroke-linecap="round" stroke-linejoin="round"/>
<path d="M154.027 179.26C157.077 179.242 159.545 178.479 159.54 177.556C159.534 176.633 157.057 175.899 154.008 175.917C150.958 175.934 148.49 176.697 148.495 177.621C148.501 178.544 150.978 179.278 154.027 179.26Z" fill="#C4C4C4" stroke="black" stroke-width="0.844428" stroke-linecap="round" stroke-linejoin="round"/>
<path d="M170.412 179.163C173.462 179.146 175.93 178.383 175.924 177.459C175.919 176.536 173.442 175.802 170.392 175.82C167.342 175.838 164.875 176.601 164.88 177.524C164.885 178.447 167.362 179.181 170.412 179.163Z" fill="#C4C4C4" stroke="black" stroke-width="0.844428" stroke-linecap="round" stroke-linejoin="round"/>
<path d="M186.806 179.068C189.856 179.05 192.323 178.287 192.318 177.364C192.313 176.441 189.836 175.707 186.786 175.725C183.736 175.743 181.268 176.505 181.274 177.429C181.279 178.352 183.756 179.086 186.806 179.068Z" fill="#C4C4C4" stroke="black" stroke-width="0.844428" stroke-linecap="round" stroke-linejoin="round"/>
<path d="M203.199 178.964C206.249 178.946 208.717 178.183 208.712 177.26C208.706 176.337 206.229 175.603 203.179 175.621C200.13 175.639 197.662 176.402 197.667 177.325C197.673 178.248 200.149 178.982 203.199 178.964Z" fill="#C4C4C4" stroke="black" stroke-width="0.844428" stroke-linecap="round" stroke-linejoin="round"/>
<path d="M219.592 178.876C222.642 178.858 225.11 178.095 225.104 177.172C225.099 176.249 222.622 175.515 219.572 175.533C216.522 175.551 214.054 176.314 214.06 177.237C214.065 178.16 216.542 178.894 219.592 178.876Z" fill="#C4C4C4" stroke="black" stroke-width="0.844428" stroke-linecap="round" stroke-linejoin="round"/>
<path d="M235.984 178.78C239.034 178.762 241.502 177.999 241.497 177.076C241.491 176.153 239.014 175.419 235.965 175.437C232.915 175.455 230.447 176.218 230.452 177.141C230.458 178.064 232.935 178.798 235.984 178.78Z" fill="#C4C4C4" stroke="black" stroke-width="0.844428" stroke-linecap="round" stroke-linejoin="round"/>
<path d="M252.378 178.684C255.428 178.667 257.896 177.904 257.89 176.981C257.885 176.057 255.408 175.323 252.358 175.341C249.308 175.359 246.84 176.122 246.846 177.045C246.851 177.968 249.328 178.702 252.378 178.684Z" fill="#C4C4C4" stroke="black" stroke-width="0.844428" stroke-linecap="round" stroke-linejoin="round"/>
<path d="M268.771 178.588C271.82 178.57 274.288 177.807 274.283 176.884C274.277 175.961 271.801 175.227 268.751 175.245C265.701 175.263 263.233 176.026 263.238 176.949C263.244 177.872 265.721 178.606 268.771 178.588Z" fill="#C4C4C4" stroke="black" stroke-width="0.844428" stroke-linecap="round" stroke-linejoin="round"/>
<path d="M285.157 178.493C288.207 178.475 290.675 177.712 290.67 176.789C290.664 175.865 288.187 175.132 285.137 175.149C282.088 175.167 279.62 175.93 279.625 176.853C279.631 177.777 282.107 178.51 285.157 178.493Z" fill="#C4C4C4" stroke="black" stroke-width="0.844428" stroke-linecap="round" stroke-linejoin="round"/>
<path d="M301.548 178.389C304.598 178.372 307.066 177.609 307.06 176.685C307.055 175.762 304.578 175.028 301.528 175.046C298.478 175.064 296.01 175.827 296.016 176.75C296.021 177.673 298.498 178.407 301.548 178.389Z" fill="#C4C4C4" stroke="black" stroke-width="0.844428" stroke-linecap="round" stroke-linejoin="round"/>
<path d="M144.668 186.75C147.718 186.732 150.186 185.969 150.18 185.046C150.175 184.123 147.698 183.389 144.648 183.406C141.598 183.424 139.13 184.187 139.136 185.11C139.141 186.034 141.618 186.767 144.668 186.75Z" fill="#C4C4C4" stroke="black" stroke-width="0.844428" stroke-linecap="round" stroke-linejoin="round"/>
<path d="M161.062 186.646C164.111 186.628 166.579 185.865 166.574 184.942C166.568 184.019 164.092 183.285 161.042 183.303C157.992 183.321 155.524 184.084 155.529 185.007C155.535 185.93 158.012 186.664 161.062 186.646Z" fill="#C4C4C4" stroke="black" stroke-width="0.844428" stroke-linecap="round" stroke-linejoin="round"/>
<path d="M177.453 186.55C180.503 186.532 182.971 185.769 182.965 184.846C182.96 183.923 180.483 183.189 177.433 183.207C174.384 183.224 171.916 183.987 171.921 184.91C171.927 185.834 174.403 186.568 177.453 186.55Z" fill="#C4C4C4" stroke="black" stroke-width="0.844428" stroke-linecap="round" stroke-linejoin="round"/>
<path d="M193.84 186.455C196.89 186.437 199.358 185.674 199.352 184.751C199.347 183.828 196.87 183.094 193.82 183.112C190.77 183.129 188.302 183.892 188.308 184.815C188.313 185.739 190.79 186.473 193.84 186.455Z" fill="#C4C4C4" stroke="black" stroke-width="0.844428" stroke-linecap="round" stroke-linejoin="round"/>
<path d="M210.232 186.358C213.282 186.34 215.75 185.577 215.745 184.654C215.739 183.731 213.262 182.997 210.213 183.015C207.163 183.033 204.695 183.796 204.7 184.719C204.706 185.642 207.183 186.376 210.232 186.358Z" fill="#C4C4C4" stroke="black" stroke-width="0.844428" stroke-linecap="round" stroke-linejoin="round"/>
<path d="M226.625 186.27C229.675 186.252 232.143 185.489 232.137 184.566C232.132 183.643 229.655 182.909 226.605 182.927C223.555 182.944 221.087 183.707 221.093 184.631C221.098 185.554 223.575 186.288 226.625 186.27Z" fill="#C4C4C4" stroke="black" stroke-width="0.844428" stroke-linecap="round" stroke-linejoin="round"/>
<path d="M243.019 186.168C246.068 186.15 248.536 185.387 248.531 184.464C248.525 183.54 246.049 182.807 242.999 182.824C239.949 182.842 237.481 183.605 237.486 184.528C237.492 185.452 239.969 186.185 243.019 186.168Z" fill="#C4C4C4" stroke="black" stroke-width="0.844428" stroke-linecap="round" stroke-linejoin="round"/>
<path d="M259.411 186.071C262.461 186.053 264.929 185.291 264.923 184.367C264.918 183.444 262.441 182.71 259.391 182.728C256.342 182.746 253.874 183.509 253.879 184.432C253.885 185.355 256.361 186.089 259.411 186.071Z" fill="#C4C4C4" stroke="black" stroke-width="0.844428" stroke-linecap="round" stroke-linejoin="round"/>
<path d="M275.806 185.976C278.856 185.958 281.323 185.195 281.318 184.272C281.313 183.349 278.836 182.615 275.786 182.633C272.736 182.651 270.268 183.413 270.274 184.337C270.279 185.26 272.756 185.994 275.806 185.976Z" fill="#C4C4C4" stroke="black" stroke-width="0.844428" stroke-linecap="round" stroke-linejoin="round"/>
<path d="M292.198 185.88C295.248 185.862 297.716 185.099 297.711 184.176C297.705 183.253 295.228 182.519 292.178 182.536C289.129 182.554 286.661 183.317 286.666 184.24C286.672 185.164 289.148 185.897 292.198 185.88Z" fill="#C4C4C4" stroke="black" stroke-width="0.844428" stroke-linecap="round" stroke-linejoin="round"/>
<path d="M308.583 185.783C311.633 185.765 314.101 185.003 314.095 184.079C314.09 183.156 311.613 182.422 308.563 182.44C305.513 182.458 303.045 183.221 303.051 184.144C303.056 185.067 305.533 185.801 308.583 185.783Z" fill="#C4C4C4" stroke="black" stroke-width="0.844428" stroke-linecap="round" stroke-linejoin="round"/>
<path d="M157.222 194.098C160.272 194.08 162.739 193.317 162.734 192.394C162.729 191.471 160.252 190.737 157.202 190.755C154.152 190.773 151.684 191.536 151.69 192.459C151.695 193.382 154.172 194.116 157.222 194.098Z" fill="#C4C4C4" stroke="black" stroke-width="0.844428" stroke-linecap="round" stroke-linejoin="round"/>
<path d="M173.607 194.01C176.657 193.992 179.125 193.229 179.12 192.306C179.114 191.383 176.637 190.649 173.588 190.667C170.538 190.685 168.07 191.447 168.075 192.371C168.081 193.294 170.558 194.028 173.607 194.01Z" fill="#C4C4C4" stroke="black" stroke-width="0.844428" stroke-linecap="round" stroke-linejoin="round"/>
<path d="M190.001 193.914C193.051 193.896 195.519 193.133 195.513 192.21C195.508 191.287 193.031 190.553 189.981 190.571C186.931 190.589 184.463 191.351 184.469 192.275C184.474 193.198 186.951 193.932 190.001 193.914Z" fill="#C4C4C4" stroke="black" stroke-width="0.844428" stroke-linecap="round" stroke-linejoin="round"/>
<path d="M206.394 193.818C209.443 193.8 211.911 193.037 211.906 192.114C211.9 191.191 209.424 190.457 206.374 190.475C203.324 190.493 200.856 191.256 200.861 192.179C200.867 193.102 203.344 193.836 206.394 193.818Z" fill="#C4C4C4" stroke="black" stroke-width="0.844428" stroke-linecap="round" stroke-linejoin="round"/>
<path d="M222.786 193.714C225.836 193.697 228.304 192.934 228.298 192.011C228.293 191.087 225.816 190.353 222.766 190.371C219.717 190.389 217.249 191.152 217.254 192.075C217.26 192.998 219.736 193.732 222.786 193.714Z" fill="#C4C4C4" stroke="black" stroke-width="0.844428" stroke-linecap="round" stroke-linejoin="round"/>
<path d="M239.18 193.618C242.23 193.601 244.698 192.838 244.692 191.914C244.687 190.991 242.21 190.257 239.16 190.275C236.11 190.293 233.642 191.056 233.648 191.979C233.653 192.902 236.13 193.636 239.18 193.618Z" fill="#C4C4C4" stroke="black" stroke-width="0.844428" stroke-linecap="round" stroke-linejoin="round"/>
<path d="M255.572 193.523C258.622 193.505 261.09 192.742 261.085 191.819C261.079 190.896 258.602 190.162 255.553 190.18C252.503 190.198 250.035 190.96 250.04 191.884C250.046 192.807 252.522 193.541 255.572 193.523Z" fill="#C4C4C4" stroke="black" stroke-width="0.844428" stroke-linecap="round" stroke-linejoin="round"/>
<path d="M271.966 193.435C275.016 193.418 277.484 192.655 277.478 191.731C277.473 190.808 274.996 190.074 271.946 190.092C268.896 190.11 266.428 190.873 266.434 191.796C266.439 192.719 268.916 193.453 271.966 193.435Z" fill="#C4C4C4" stroke="black" stroke-width="0.844428" stroke-linecap="round" stroke-linejoin="round"/>
<path d="M288.351 193.34C291.4 193.322 293.868 192.559 293.863 191.636C293.857 190.712 291.381 189.979 288.331 189.996C285.281 190.014 282.813 190.777 282.818 191.7C282.824 192.624 285.301 193.357 288.351 193.34Z" fill="#C4C4C4" stroke="black" stroke-width="0.844428" stroke-linecap="round" stroke-linejoin="round"/>
<path d="M304.743 193.243C307.793 193.226 310.261 192.463 310.256 191.539C310.25 190.616 307.773 189.882 304.723 189.9C301.674 189.918 299.206 190.681 299.211 191.604C299.217 192.527 301.693 193.261 304.743 193.243Z" fill="#C4C4C4" stroke="black" stroke-width="0.844428" stroke-linecap="round" stroke-linejoin="round"/>
<path d="M321.138 193.14C324.188 193.122 326.656 192.359 326.65 191.436C326.645 190.513 324.168 189.779 321.118 189.797C318.068 189.815 315.6 190.577 315.606 191.501C315.611 192.424 318.088 193.158 321.138 193.14Z" fill="#C4C4C4" stroke="black" stroke-width="0.844428" stroke-linecap="round" stroke-linejoin="round"/>
<path d="M174.606 202.595C177.656 202.577 180.124 201.815 180.119 200.891C180.113 199.968 177.637 199.234 174.587 199.252C171.537 199.27 169.069 200.033 169.074 200.956C169.08 201.879 171.557 202.613 174.606 202.595Z" fill="#C4C4C4" stroke="black" stroke-width="0.844428" stroke-linecap="round" stroke-linejoin="round"/>
<path d="M190.999 202.5C194.049 202.482 196.517 201.719 196.511 200.796C196.506 199.873 194.029 199.139 190.979 199.157C187.929 199.174 185.461 199.937 185.467 200.861C185.472 201.784 187.949 202.518 190.999 202.5Z" fill="#C4C4C4" stroke="black" stroke-width="0.844428" stroke-linecap="round" stroke-linejoin="round"/>
<path d="M207.393 202.403C210.442 202.386 212.91 201.623 212.905 200.699C212.899 199.776 210.423 199.042 207.373 199.06C204.323 199.078 201.855 199.841 201.86 200.764C201.866 201.687 204.343 202.421 207.393 202.403Z" fill="#C4C4C4" stroke="black" stroke-width="0.844428" stroke-linecap="round" stroke-linejoin="round"/>
<path d="M223.785 202.308C226.835 202.29 229.303 201.527 229.298 200.604C229.292 199.681 226.815 198.947 223.765 198.965C220.716 198.983 218.248 199.745 218.253 200.669C218.259 201.592 220.735 202.326 223.785 202.308Z" fill="#C4C4C4" stroke="black" stroke-width="0.844428" stroke-linecap="round" stroke-linejoin="round"/>
<path d="M240.179 202.212C243.229 202.194 245.697 201.431 245.691 200.508C245.686 199.585 243.209 198.851 240.159 198.869C237.109 198.887 234.641 199.65 234.647 200.573C234.652 201.496 237.129 202.23 240.179 202.212Z" fill="#C4C4C4" stroke="black" stroke-width="0.844428" stroke-linecap="round" stroke-linejoin="round"/>
<path d="M256.564 202.108C259.614 202.09 262.082 201.327 262.077 200.404C262.071 199.481 259.595 198.747 256.545 198.765C253.495 198.783 251.027 199.546 251.032 200.469C251.038 201.392 253.515 202.126 256.564 202.108Z" fill="#C4C4C4" stroke="black" stroke-width="0.844428" stroke-linecap="round" stroke-linejoin="round"/>
<path d="M272.957 202.02C276.007 202.002 278.475 201.239 278.469 200.316C278.464 199.393 275.987 198.659 272.937 198.677C269.887 198.694 267.419 199.457 267.425 200.381C267.43 201.304 269.907 202.038 272.957 202.02Z" fill="#C4C4C4" stroke="black" stroke-width="0.844428" stroke-linecap="round" stroke-linejoin="round"/>
<path d="M289.351 201.924C292.4 201.906 294.868 201.144 294.863 200.22C294.857 199.297 292.381 198.563 289.331 198.581C286.281 198.599 283.813 199.362 283.818 200.285C283.824 201.208 286.301 201.942 289.351 201.924Z" fill="#C4C4C4" stroke="black" stroke-width="0.844428" stroke-linecap="round" stroke-linejoin="round"/>
<path d="M305.743 201.828C308.793 201.81 311.261 201.047 311.256 200.124C311.25 199.201 308.773 198.467 305.723 198.485C302.674 198.503 300.206 199.266 300.211 200.189C300.217 201.112 302.693 201.846 305.743 201.828Z" fill="#C4C4C4" stroke="black" stroke-width="0.844428" stroke-linecap="round" stroke-linejoin="round"/>
<path d="M322.136 201.733C325.186 201.715 327.654 200.952 327.648 200.029C327.643 199.105 325.166 198.372 322.116 198.389C319.066 198.407 316.598 199.17 316.604 200.093C316.609 201.017 319.086 201.75 322.136 201.733Z" fill="#C4C4C4" stroke="black" stroke-width="0.844428" stroke-linecap="round" stroke-linejoin="round"/>
<path d="M338.528 201.63C341.578 201.612 344.046 200.849 344.041 199.926C344.035 199.002 341.558 198.268 338.509 198.286C335.459 198.304 332.991 199.067 332.996 199.99C333.002 200.913 335.479 201.647 338.528 201.63Z" fill="#C4C4C4" stroke="black" stroke-width="0.844428" stroke-linecap="round" stroke-linejoin="round"/>
<path d="M95.9357 54.6032L240.525 53.7437L269.71 141.805L121.049 142.69L95.9357 54.6032Z" fill="white"/>
<mask id="mask0_3987_23418" style="mask-type:luminance" maskUnits="userSpaceOnUse" x="95" y="53" width="175" height="90">
<path d="M95.9357 54.6016L240.525 53.7422L269.71 141.803L121.049 142.688L95.9357 54.6016Z" fill="white"/>
</mask>
<g mask="url(#mask0_3987_23418)">
<path d="M262.719 48.1386L87.3486 49.172L87.4462 65.7366L262.817 64.7032L262.719 48.1386Z" fill="#008847" stroke="black" stroke-width="0.81079" stroke-linecap="round" stroke-linejoin="round"/>
</g>
<path d="M95.9357 54.6032L240.525 53.7437L269.71 141.805L121.049 142.69L95.9357 54.6032Z" stroke="black" stroke-width="0.81079" stroke-linecap="round" stroke-linejoin="round"/>
<path d="M230.41 62.4346L212.876 62.5789C211.45 62.5915 210.21 61.6115 209.892 60.2234L209.882 60.1796C209.442 58.2832 210.879 56.4692 212.822 56.4603L230.366 56.3598C231.656 56.3501 232.812 57.1599 233.242 58.3759C233.947 60.3424 232.495 62.4174 230.404 62.4345L230.41 62.4346Z" fill="#18AB64" stroke="black" stroke-width="0.81079" stroke-linecap="round" stroke-linejoin="round"/>
<path d="M107.574 74.8548L240.782 73.7378" stroke="black" stroke-width="0.81079" stroke-linecap="round" stroke-linejoin="round"/>
<path d="M109.318 79.0347L242.52 77.9176" stroke="black" stroke-width="0.81079" stroke-linecap="round" stroke-linejoin="round"/>
<path d="M110.8 83.8334L244.008 82.7109" stroke="#C89000" stroke-width="0.81079" stroke-linecap="round" stroke-linejoin="round"/>
<path d="M112.543 88.0053L245.751 86.8883" stroke="#C89000" stroke-width="0.81079" stroke-linecap="round" stroke-linejoin="round"/>
<path d="M113.378 92.8057L247.228 91.6838" stroke="black" stroke-width="0.81079" stroke-linecap="round" stroke-linejoin="round"/>
<path d="M115.126 96.9841L248.976 95.8623" stroke="black" stroke-width="0.81079" stroke-linecap="round" stroke-linejoin="round"/>
<path d="M116.266 101.789L250.449 100.662" stroke="black" stroke-width="0.81079" stroke-linecap="round" stroke-linejoin="round"/>
<path d="M118.015 105.969L252.203 104.842" stroke="black" stroke-width="0.81079" stroke-linecap="round" stroke-linejoin="round"/>
<path d="M118.473 110.772L253.662 109.635" stroke="#C89000" stroke-width="0.81079" stroke-linecap="round" stroke-linejoin="round"/>
<path d="M120.237 114.951L255.427 113.814" stroke="black" stroke-width="0.81079" stroke-linecap="round" stroke-linejoin="round"/>
<path d="M121.228 119.746L223.479 118.887" stroke="black" stroke-width="0.81079" stroke-linecap="round" stroke-linejoin="round"/>
<path d="M123.01 123.925L205.3 123.232" stroke="black" stroke-width="0.81079" stroke-linecap="round" stroke-linejoin="round"/>
<path d="M270.356 125.994C274.123 137.732 266.604 147.402 253.642 147.348C240.877 147.297 228.047 137.797 224.89 126.35C221.812 115.166 229.107 106.09 241.281 105.859C253.624 105.622 266.678 114.528 270.356 125.994Z" fill="#FDD73F" stroke="black" stroke-width="0.94226" stroke-linecap="round" stroke-linejoin="round"/>
<path d="M254.247 114.008L233.839 114.306L230.546 122.968L252.351 142.479L262.408 122.659L254.246 114.017L254.247 114.008ZM250.587 123.401L250.599 137.35L242.186 123.484L250.587 123.401ZM242.137 122.055L244.266 116.537L248.955 121.98L242.147 122.055L242.137 122.055ZM245.196 115.555L252.74 115.447L250.132 121.264L245.196 115.546L245.196 115.555ZM240.557 121.401L235.146 115.702L242.802 115.596L240.557 121.401ZM239.362 122.08L232.675 122.147L234.61 117.047L239.371 122.08L239.362 122.08ZM249.873 138.906L233.19 123.566L240.557 123.492L249.873 138.896L249.873 138.906ZM252.236 123.383L260.087 123.309L252.27 138.678L252.236 123.383ZM251.73 121.955L254.359 116.082L259.805 121.866L251.73 121.946L251.73 121.955Z" fill="#C89000"/>
<rect x="179.771" y="121.466" width="179.284" height="34.341" rx="17.1705" transform="rotate(-180 179.771 121.466)" fill="#6E1AF6"/>
<rect x="179.771" y="121.466" width="179.284" height="34.341" rx="17.1705" transform="rotate(-180 179.771 121.466)" stroke="black" stroke-width="0.972349"/>
<ellipse cx="28.4509" cy="103.71" rx="8.99675" ry="8.99674" fill="#FDD73F"/>
<path d="M31.2106 107.314H26.3546V106.446L28.2136 104.563C28.5733 104.196 28.8693 103.881 29.1014 103.616C29.3336 103.348 29.5053 103.094 29.6165 102.856C29.7309 102.617 29.7881 102.357 29.7881 102.076C29.7881 101.729 29.6884 101.467 29.4889 101.291C29.2895 101.111 29.0262 101.021 28.6992 101.021C28.3886 101.021 28.1008 101.083 27.8359 101.207C27.5743 101.328 27.3029 101.502 27.0217 101.727L26.3889 100.967C26.5884 100.797 26.801 100.642 27.0266 100.501C27.2555 100.361 27.5106 100.249 27.7918 100.168C28.073 100.083 28.3935 100.04 28.7532 100.04C29.2077 100.04 29.6001 100.122 29.9304 100.285C30.2607 100.446 30.5141 100.67 30.6907 100.957C30.8705 101.245 30.9605 101.58 30.9605 101.963C30.9605 102.349 30.8836 102.705 30.7299 103.032C30.5762 103.359 30.3571 103.683 30.0726 104.003C29.7881 104.321 29.4497 104.666 29.0573 105.038L27.8163 106.25V106.304H31.2106V107.314Z" fill="black"/>
<path d="M59.2067 99.3651C59.9178 99.3651 60.5047 99.4516 60.9675 99.6247C61.434 99.7977 61.7802 100.061 62.0059 100.415C62.2354 100.768 62.3502 101.218 62.3502 101.764C62.3502 102.17 62.2749 102.516 62.1244 102.802C61.9739 103.088 61.7764 103.325 61.5319 103.513C61.2873 103.701 61.0258 103.852 60.7474 103.965L63.0895 107.616H61.5601L59.5679 104.309H58.2417V107.616H56.8873V99.3651H59.2067ZM59.1164 100.494H58.2417V103.191H59.1785C59.8068 103.191 60.2621 103.075 60.5442 102.841C60.8302 102.608 60.9731 102.264 60.9731 101.809C60.9731 101.331 60.8208 100.992 60.516 100.793C60.215 100.593 59.7485 100.494 59.1164 100.494ZM66.6223 101.25C67.1791 101.25 67.6569 101.365 68.0557 101.594C68.4545 101.824 68.7612 102.149 68.9756 102.571C69.1901 102.992 69.2973 103.496 69.2973 104.083V104.794H65.1268C65.1418 105.4 65.3036 105.866 65.6121 106.194C65.9244 106.521 66.3608 106.685 66.9214 106.685C67.3202 106.685 67.6776 106.647 67.9936 106.572C68.3134 106.493 68.6426 106.378 68.9813 106.228V107.305C68.669 107.452 68.3511 107.559 68.0275 107.627C67.7039 107.695 67.3164 107.729 66.8649 107.729C66.2517 107.729 65.7118 107.61 65.2453 107.373C64.7825 107.132 64.4194 106.775 64.1561 106.301C63.8965 105.827 63.7667 105.238 63.7667 104.534C63.7667 103.835 63.8852 103.24 64.1222 102.751C64.3592 102.262 64.6922 101.89 65.1211 101.634C65.55 101.378 66.0504 101.25 66.6223 101.25ZM66.6223 102.249C66.2047 102.249 65.8661 102.384 65.6065 102.655C65.3506 102.926 65.2001 103.323 65.155 103.846H67.9993C67.9955 103.534 67.9429 103.257 67.8413 103.016C67.7435 102.776 67.593 102.587 67.3898 102.452C67.1904 102.317 66.9346 102.249 66.6223 102.249ZM73.3098 107.729C72.7191 107.729 72.2075 107.614 71.7748 107.384C71.3421 107.155 71.0092 106.803 70.7759 106.329C70.5426 105.855 70.426 105.253 70.426 104.523C70.426 103.763 70.5539 103.142 70.8097 102.661C71.0656 102.179 71.4192 101.824 71.8707 101.594C72.326 101.365 72.847 101.25 73.434 101.25C73.8064 101.25 74.1432 101.288 74.4442 101.363C74.7489 101.434 75.0066 101.523 75.2173 101.628L74.8223 102.689C74.5928 102.595 74.3576 102.516 74.1168 102.452C73.876 102.388 73.6447 102.356 73.4227 102.356C73.0577 102.356 72.753 102.437 72.5084 102.599C72.2677 102.761 72.0871 103.001 71.9667 103.321C71.85 103.641 71.7917 104.038 71.7917 104.512C71.7917 104.971 71.8519 105.358 71.9723 105.674C72.0927 105.987 72.2714 106.224 72.5084 106.386C72.7455 106.544 73.037 106.623 73.3832 106.623C73.7256 106.623 74.0322 106.581 74.3031 106.498C74.574 106.416 74.8298 106.308 75.0706 106.177V107.328C74.8336 107.463 74.5796 107.563 74.3087 107.627C74.0378 107.695 73.7049 107.729 73.3098 107.729ZM82.0685 104.478C82.0685 104.997 82.0008 105.458 81.8653 105.861C81.7299 106.263 81.5324 106.604 81.2728 106.882C81.0132 107.157 80.7009 107.368 80.336 107.514C79.971 107.657 79.559 107.729 79.1 107.729C78.6711 107.729 78.278 107.657 77.9205 107.514C77.5631 107.368 77.2527 107.157 76.9894 106.882C76.7298 106.604 76.5285 106.263 76.3855 105.861C76.2425 105.458 76.1711 104.997 76.1711 104.478C76.1711 103.79 76.2896 103.206 76.5266 102.729C76.7674 102.247 77.1098 101.88 77.5537 101.628C77.9977 101.376 78.5263 101.25 79.1395 101.25C79.7152 101.25 80.2231 101.376 80.6633 101.628C81.1035 101.88 81.4477 102.247 81.696 102.729C81.9444 103.21 82.0685 103.793 82.0685 104.478ZM77.5368 104.478C77.5368 104.933 77.5913 105.323 77.7004 105.646C77.8133 105.97 77.9864 106.218 78.2197 106.391C78.4529 106.561 78.7539 106.645 79.1226 106.645C79.4913 106.645 79.7923 106.561 80.0256 106.391C80.2588 106.218 80.43 105.97 80.5391 105.646C80.6482 105.323 80.7028 104.933 80.7028 104.478C80.7028 104.023 80.6482 103.637 80.5391 103.321C80.43 103.001 80.2588 102.759 80.0256 102.593C79.7923 102.424 79.4894 102.339 79.117 102.339C78.5677 102.339 78.167 102.524 77.9149 102.892C77.6628 103.261 77.5368 103.79 77.5368 104.478ZM90.6523 101.25C91.352 101.25 91.8788 101.431 92.2324 101.792C92.5899 102.153 92.7686 102.732 92.7686 103.53V107.616H91.4423V103.767C91.4423 103.293 91.3502 102.936 91.1658 102.695C90.9815 102.454 90.7012 102.334 90.3249 102.334C89.7982 102.334 89.4182 102.503 89.185 102.841C88.9554 103.176 88.8407 103.664 88.8407 104.303V107.616H87.5145V103.767C87.5145 103.451 87.4731 103.188 87.3903 102.977C87.3113 102.762 87.189 102.603 87.0235 102.497C86.858 102.388 86.6491 102.334 86.3971 102.334C86.0321 102.334 85.7405 102.416 85.5223 102.582C85.3079 102.747 85.1536 102.992 85.0596 103.316C84.9655 103.635 84.9185 104.028 84.9185 104.495V107.616H83.5923V101.369H84.625L84.8112 102.209H84.8846C85.0125 101.991 85.1705 101.812 85.3587 101.673C85.5505 101.53 85.7631 101.425 85.9964 101.357C86.2296 101.286 86.4723 101.25 86.7244 101.25C87.1909 101.25 87.5841 101.333 87.9039 101.498C88.2237 101.66 88.4626 101.908 88.6206 102.243H88.7222C88.9178 101.905 89.1906 101.654 89.5405 101.493C89.8904 101.331 90.261 101.25 90.6523 101.25ZM101.68 101.25C102.379 101.25 102.906 101.431 103.26 101.792C103.617 102.153 103.796 102.732 103.796 103.53V107.616H102.47V103.767C102.47 103.293 102.378 102.936 102.193 102.695C102.009 102.454 101.729 102.334 101.352 102.334C100.826 102.334 100.446 102.503 100.212 102.841C99.9828 103.176 99.8681 103.664 99.8681 104.303V107.616H98.5419V103.767C98.5419 103.451 98.5005 103.188 98.4177 102.977C98.3387 102.762 98.2164 102.603 98.0509 102.497C97.8853 102.388 97.6765 102.334 97.4244 102.334C97.0595 102.334 96.7679 102.416 96.5497 102.582C96.3353 102.747 96.181 102.992 96.0869 103.316C95.9929 103.635 95.9459 104.028 95.9459 104.495V107.616H94.6196V101.369H95.6524L95.8386 102.209H95.912C96.0399 101.991 96.1979 101.812 96.386 101.673C96.5779 101.53 96.7905 101.425 97.0238 101.357C97.257 101.286 97.4997 101.25 97.7518 101.25C98.2183 101.25 98.6115 101.333 98.9313 101.498C99.2511 101.66 99.49 101.908 99.648 102.243H99.7496C99.9452 101.905 100.218 101.654 100.568 101.493C100.918 101.331 101.288 101.25 101.68 101.25ZM108.136 101.25C108.693 101.25 109.17 101.365 109.569 101.594C109.968 101.824 110.275 102.149 110.489 102.571C110.704 102.992 110.811 103.496 110.811 104.083V104.794H106.64C106.655 105.4 106.817 105.866 107.126 106.194C107.438 106.521 107.874 106.685 108.435 106.685C108.834 106.685 109.191 106.647 109.507 106.572C109.827 106.493 110.156 106.378 110.495 106.228V107.305C110.182 107.452 109.865 107.559 109.541 107.627C109.217 107.695 108.83 107.729 108.378 107.729C107.765 107.729 107.225 107.61 106.759 107.373C106.296 107.132 105.933 106.775 105.67 106.301C105.41 105.827 105.28 105.238 105.28 104.534C105.28 103.835 105.399 103.24 105.636 102.751C105.873 102.262 106.206 101.89 106.635 101.634C107.064 101.378 107.564 101.25 108.136 101.25ZM108.136 102.249C107.718 102.249 107.38 102.384 107.12 102.655C106.864 102.926 106.714 103.323 106.668 103.846H109.513C109.509 103.534 109.456 103.257 109.355 103.016C109.257 102.776 109.106 102.587 108.903 102.452C108.704 102.317 108.448 102.249 108.136 102.249ZM115.563 101.25C116.266 101.25 116.814 101.432 117.205 101.797C117.6 102.159 117.797 102.74 117.797 103.541V107.616H116.471V103.79C116.471 103.304 116.372 102.941 116.172 102.7C115.973 102.456 115.664 102.334 115.247 102.334C114.641 102.334 114.219 102.52 113.982 102.892C113.749 103.265 113.633 103.805 113.633 104.512V107.616H112.306V101.369H113.339L113.525 102.215H113.599C113.734 101.997 113.902 101.818 114.101 101.679C114.304 101.536 114.53 101.429 114.778 101.357C115.03 101.286 115.292 101.25 115.563 101.25ZM121.754 107.729C121.009 107.729 120.41 107.458 119.959 106.916C119.511 106.371 119.287 105.567 119.287 104.506C119.287 103.434 119.515 102.623 119.97 102.074C120.429 101.525 121.033 101.25 121.782 101.25C122.098 101.25 122.374 101.293 122.611 101.38C122.848 101.463 123.052 101.575 123.221 101.718C123.394 101.861 123.541 102.021 123.661 102.198H123.723C123.704 102.081 123.682 101.914 123.655 101.696C123.633 101.474 123.622 101.269 123.622 101.081V98.8346H124.953V107.616H123.915L123.678 106.764H123.622C123.509 106.944 123.366 107.108 123.193 107.255C123.023 107.398 122.82 107.512 122.583 107.599C122.35 107.685 122.073 107.729 121.754 107.729ZM122.126 106.651C122.694 106.651 123.095 106.487 123.328 106.16C123.561 105.833 123.682 105.342 123.689 104.687V104.512C123.689 103.812 123.576 103.276 123.351 102.904C123.125 102.527 122.713 102.339 122.115 102.339C121.637 102.339 121.272 102.533 121.02 102.92C120.772 103.304 120.647 103.84 120.647 104.529C120.647 105.217 120.772 105.744 121.02 106.109C121.272 106.47 121.641 106.651 122.126 106.651ZM129.305 101.25C130.095 101.25 130.691 101.425 131.094 101.775C131.5 102.125 131.703 102.67 131.703 103.411V107.616H130.761L130.507 106.73H130.461C130.285 106.956 130.102 107.142 129.914 107.289C129.726 107.435 129.508 107.544 129.259 107.616C129.015 107.691 128.716 107.729 128.362 107.729C127.99 107.729 127.657 107.661 127.363 107.526C127.07 107.386 126.838 107.176 126.669 106.893C126.5 106.611 126.415 106.254 126.415 105.821C126.415 105.178 126.654 104.694 127.132 104.371C127.613 104.047 128.339 103.869 129.31 103.835L130.394 103.795V103.468C130.394 103.035 130.292 102.727 130.089 102.542C129.89 102.358 129.607 102.266 129.242 102.266C128.93 102.266 128.627 102.311 128.334 102.401C128.04 102.492 127.754 102.603 127.476 102.734L127.047 101.797C127.352 101.636 127.698 101.504 128.086 101.402C128.477 101.301 128.883 101.25 129.305 101.25ZM130.388 104.63L129.581 104.659C128.919 104.681 128.454 104.794 128.187 104.997C127.92 105.2 127.786 105.479 127.786 105.833C127.786 106.141 127.879 106.367 128.063 106.51C128.247 106.649 128.49 106.719 128.791 106.719C129.25 106.719 129.63 106.589 129.931 106.329C130.236 106.066 130.388 105.68 130.388 105.172V104.63ZM135.885 106.656C136.058 106.656 136.229 106.641 136.398 106.611C136.568 106.577 136.722 106.538 136.861 106.493V107.497C136.714 107.561 136.524 107.616 136.291 107.661C136.058 107.706 135.815 107.729 135.563 107.729C135.209 107.729 134.892 107.67 134.609 107.554C134.327 107.433 134.103 107.228 133.938 106.939C133.772 106.649 133.69 106.248 133.69 105.737V102.379H132.837V101.786L133.752 101.318L134.186 99.9802H135.021V101.369H136.81V102.379H135.021V105.72C135.021 106.036 135.1 106.271 135.258 106.425C135.416 106.579 135.625 106.656 135.885 106.656ZM139.457 101.369V107.616H138.131V101.369H139.457ZM138.803 98.9757C139.006 98.9757 139.181 99.0302 139.327 99.1393C139.478 99.2484 139.553 99.4365 139.553 99.7037C139.553 99.967 139.478 100.155 139.327 100.268C139.181 100.377 139.006 100.432 138.803 100.432C138.592 100.432 138.413 100.377 138.266 100.268C138.123 100.155 138.052 99.967 138.052 99.7037C138.052 99.4365 138.123 99.2484 138.266 99.1393C138.413 99.0302 138.592 98.9757 138.803 98.9757ZM146.89 104.478C146.89 104.997 146.822 105.458 146.686 105.861C146.551 106.263 146.353 106.604 146.094 106.882C145.834 107.157 145.522 107.368 145.157 107.514C144.792 107.657 144.38 107.729 143.921 107.729C143.492 107.729 143.099 107.657 142.742 107.514C142.384 107.368 142.074 107.157 141.81 106.882C141.551 106.604 141.35 106.263 141.207 105.861C141.064 105.458 140.992 104.997 140.992 104.478C140.992 103.79 141.111 103.206 141.348 102.729C141.589 102.247 141.931 101.88 142.375 101.628C142.819 101.376 143.347 101.25 143.961 101.25C144.536 101.25 145.044 101.376 145.484 101.628C145.925 101.88 146.269 102.247 146.517 102.729C146.765 103.21 146.89 103.793 146.89 104.478ZM142.358 104.478C142.358 104.933 142.412 105.323 142.522 105.646C142.634 105.97 142.808 106.218 143.041 106.391C143.274 106.561 143.575 106.645 143.944 106.645C144.312 106.645 144.613 106.561 144.847 106.391C145.08 106.218 145.251 105.97 145.36 105.646C145.469 105.323 145.524 104.933 145.524 104.478C145.524 104.023 145.469 103.637 145.36 103.321C145.251 103.001 145.08 102.759 144.847 102.593C144.613 102.424 144.311 102.339 143.938 102.339C143.389 102.339 142.988 102.524 142.736 102.892C142.484 103.261 142.358 103.79 142.358 104.478ZM151.67 101.25C152.373 101.25 152.921 101.432 153.312 101.797C153.707 102.159 153.904 102.74 153.904 103.541V107.616H152.578V103.79C152.578 103.304 152.479 102.941 152.279 102.7C152.08 102.456 151.771 102.334 151.354 102.334C150.748 102.334 150.327 102.52 150.089 102.892C149.856 103.265 149.74 103.805 149.74 104.512V107.616H148.413V101.369H149.446L149.632 102.215H149.706C149.841 101.997 150.009 101.818 150.208 101.679C150.411 101.536 150.637 101.429 150.885 101.357C151.137 101.286 151.399 101.25 151.67 101.25ZM159.96 105.833C159.96 106.243 159.86 106.589 159.661 106.871C159.461 107.153 159.17 107.368 158.786 107.514C158.406 107.657 157.94 107.729 157.387 107.729C156.95 107.729 156.574 107.697 156.258 107.633C155.946 107.573 155.65 107.479 155.372 107.351V106.205C155.669 106.344 156.002 106.465 156.371 106.566C156.743 106.668 157.095 106.719 157.426 106.719C157.862 106.719 158.177 106.651 158.368 106.515C158.56 106.376 158.656 106.192 158.656 105.962C158.656 105.827 158.617 105.706 158.538 105.601C158.463 105.492 158.32 105.381 158.109 105.268C157.902 105.152 157.597 105.012 157.195 104.851C156.8 104.693 156.467 104.534 156.196 104.376C155.925 104.218 155.72 104.028 155.581 103.806C155.441 103.581 155.372 103.293 155.372 102.943C155.372 102.39 155.59 101.97 156.026 101.685C156.467 101.395 157.048 101.25 157.77 101.25C158.154 101.25 158.515 101.289 158.854 101.369C159.196 101.444 159.531 101.555 159.858 101.701L159.441 102.7C159.159 102.576 158.875 102.475 158.589 102.396C158.306 102.313 158.019 102.271 157.725 102.271C157.383 102.271 157.121 102.324 156.941 102.429C156.764 102.535 156.675 102.685 156.675 102.881C156.675 103.028 156.719 103.152 156.805 103.253C156.892 103.355 157.04 103.457 157.251 103.558C157.466 103.66 157.763 103.786 158.143 103.936C158.515 104.079 158.837 104.23 159.108 104.388C159.382 104.542 159.593 104.732 159.74 104.958C159.887 105.184 159.96 105.475 159.96 105.833Z" fill="white"/>
<path fill-rule="evenodd" clip-rule="evenodd" d="M43.7057 98.3581C43.7871 98.2395 43.9216 98.1687 44.0654 98.1687H51.2719C51.4194 98.1687 51.5568 98.2432 51.6374 98.3667L53.3928 101.058C53.4902 101.207 53.487 101.401 53.3847 101.547L48.1184 109.065C48.0378 109.18 47.9068 109.249 47.7663 109.251C47.6259 109.252 47.4932 109.186 47.4099 109.073L41.8664 101.555C41.7561 101.406 41.7527 101.203 41.8579 101.05L43.7057 98.3581ZM44.0654 99.3758L45.0845 100.86H43.0463L44.0654 99.3758ZM43.0813 101.733L46.8161 106.798L45.5712 101.733H43.0813ZM46.742 100.86L47.761 99.3758L48.7802 100.86H46.742ZM49.0524 101.733L47.761 106.986L46.4697 101.733H49.0524ZM48.7411 106.655L49.951 101.733H52.189L48.7411 106.655ZM52.2219 100.86H50.3913L51.2819 99.4189L52.2219 100.86ZM50.4895 99.0413H48.5898L49.5897 100.498L50.4895 99.0413ZM46.9323 99.0413H44.8941L45.9132 100.526L46.9323 99.0413Z" fill="white"/>
<path d="M22.1389 0.708496L25.624 16.9979L41.9204 20.4831L25.624 23.9683L22.1389 40.2645L18.6537 23.9683L2.36426 20.4831L18.6537 16.9979L22.1389 0.708496Z" fill="white" stroke="black" stroke-width="0.89074" stroke-linecap="round" stroke-linejoin="round"/>
<path d="M87.3389 206.072L80.0346 207.918L83.1471 214.781L77.1512 210.222L73.7262 216.931L73.5511 209.397L66.1719 210.906L71.9511 206.072L66.1719 201.243L73.5511 202.747L73.7262 195.218L77.1512 201.926L83.1471 197.368L80.0346 204.226L87.3389 206.072Z" fill="#E4A400" stroke="black" stroke-width="0.89074" stroke-linecap="round" stroke-linejoin="round"/>
<defs>
<linearGradient id="paint0_linear_3987_23418" x1="275.454" y1="0.000130754" x2="389.399" y2="147.357" gradientUnits="userSpaceOnUse">
<stop stop-color="#701AFB"/>
<stop offset="1"/>
</linearGradient>
<linearGradient id="paint1_linear_3987_23418" x1="75.5936" y1="294.353" x2="268.638" y2="16.9979" gradientUnits="userSpaceOnUse">
<stop offset="0.401465" stop-color="#701AFB"/>
<stop offset="0.88"/>
</linearGradient>
<clipPath id="clip0_3987_23418">
<rect x="240.342" y="0.00012207" width="170.769" height="139.882" rx="5.79772" fill="white"/>
</clipPath>
</defs>
</svg>
